<svg width="200" height="200" xmlns="http://www.w3.org/2000/svg" xmlns:svg="http://www.w3.org/2000/svg" preserveAspectRatio="xMidYMid meet">
  <g>
  <title>Layer 1</title>
  <g fill="#b30000" id="svg_1" transform="rotate(-34.9369, 100.613, 100.027)">
   <path d="m94.87228,195.94788c-0.81994,-0.09999 -1.93985,-0.13997 -2.45981,-0.07999c-0.67995,0.07999 -0.93994,0.06001 -0.83994,-0.09999c0.07998,-0.13998 -0.16,-0.19995 -0.73995,-0.19995c-2.03984,0.01997 -2.17984,0 -2.03984,-0.22003c0.09998,-0.15994 -0.02,-0.19997 -0.37997,-0.11998c-0.27998,0.08 -1.2999,-0.01996 -2.27985,-0.19997c-0.95992,-0.17996 -1.99984,-0.34 -2.29983,-0.34c-0.27996,-0.01996 -0.47997,-0.07999 -0.43995,-0.13995c0.03998,-0.08002 -0.25999,-0.13998 -0.67996,-0.13998c-0.39996,-0.02002 -1.45988,-0.20001 -2.31982,-0.41997c-0.87991,-0.22002 -1.65987,-0.35999 -1.75985,-0.29999c-0.07999,0.05995 -0.16,0.01997 -0.16,-0.08003c0,-0.09996 -0.23997,-0.17996 -0.53996,-0.19998c-0.31998,0 -1.09991,-0.19998 -1.73988,-0.41998c-0.65995,-0.23993 -1.35989,-0.41994 -1.57987,-0.41994c-0.21998,0 -0.97993,-0.21997 -1.67987,-0.49994c-0.69996,-0.28 -1.35991,-0.45999 -1.45988,-0.39999c-0.12,0.06001 -0.19999,0.02 -0.19999,-0.09998c0,-0.11996 -0.07999,-0.16 -0.19999,-0.09999c-0.09999,0.06001 -0.19997,0.02 -0.19997,-0.12001c0,-0.13997 -0.06001,-0.19998 -0.12001,-0.11995c-0.12,0.09999 -0.89992,-0.14 -2.17983,-0.67996c-0.31997,-0.12001 -0.77991,-0.27997 -0.99991,-0.31996c-0.22,-0.04001 -0.77995,-0.25998 -1.21991,-0.47995c-0.45998,-0.22002 -1.03992,-0.43999 -1.2799,-0.47998c-0.39998,-0.08002 -1.27991,-0.45995 -3.59975,-1.57993c-0.47997,-0.21991 -0.93992,-0.39996 -0.9999,-0.39996c-0.06,0.02 -0.45998,-0.15996 -0.89993,-0.37996c-0.43999,-0.23999 -0.83995,-0.41997 -0.89996,-0.43997c-0.31996,-0.03998 -1.39989,-0.81992 -1.39989,-1.01993c0,-0.11995 0.21998,-0.55992 0.49996,-0.9599c0.25997,-0.39998 0.41998,-0.71994 0.35995,-0.71994c-0.07997,0 0.06002,-0.19998 0.27999,-0.43997c0.21999,-0.25995 0.57998,-0.75992 0.77995,-1.13991c0.53997,-0.95993 0.71996,-1.2399 1.27992,-2.01988c0.27996,-0.37996 0.59995,-0.83992 0.69993,-1.0199c1.2999,-2.17981 1.75989,-2.89981 1.89986,-2.97981c0.09999,-0.05997 0.27998,-0.33994 0.39997,-0.59993c0.29998,-0.67995 1.09993,-1.95984 1.73988,-2.77982c0.01999,-0.03998 0.21996,0.05998 0.39996,0.22002c0.2,0.17996 0.71996,0.41998 1.1599,0.53996c0.43998,0.11998 0.99992,0.35997 1.25992,0.51996c0.23997,0.17999 0.69994,0.37999 0.97991,0.41997c0.3,0.06001 0.95992,0.29997 1.4599,0.55995c0.49995,0.23999 1.2999,0.59996 1.79987,0.75995c0.49996,0.17999 1.1799,0.39996 1.49988,0.51994c1.63987,0.55997 3.31974,1.07997 3.73975,1.13991c0.23997,0.04004 0.89993,0.22 1.43987,0.38002c0.51994,0.17996 1.03992,0.25995 1.13992,0.19998c0.09998,-0.06001 0.17997,0 0.17997,0.12001c0,0.13997 0.13999,0.19995 0.29997,0.11995c0.16,-0.06001 0.29999,-0.03998 0.29999,0.06c0,0.08003 0.23997,0.16 0.55995,0.17999c0.29998,0.01996 1.23991,0.2 2.09985,0.41994c0.83994,0.22 1.67989,0.36 1.83987,0.3c0.15998,-0.08 0.29997,-0.01999 0.29997,0.12001c0,0.13997 0.15997,0.17998 0.39996,0.09999c0.21999,-0.05998 0.39997,-0.03999 0.39997,0.03998c0,0.10005 0.33997,0.17998 0.75993,0.17998c0.39999,0 1.45989,0.13998 2.33984,0.3c0.87994,0.13997 2.13985,0.25995 2.7998,0.23993c0.85992,-0.03998 1.11993,0.02002 0.89993,0.15999c-0.19999,0.14001 0.19999,0.16 1.2999,0.08003c0.87993,-0.08003 1.49988,-0.06 1.35989,0.03998c-0.12,0.08003 1.65987,0.16 3.95969,0.16c2.29985,0 4.1797,-0.03999 4.1797,-0.10002c0,-0.05998 0.59996,-0.14 1.3599,-0.15996c2.23983,-0.04002 3.65971,-0.18002 5.33958,-0.45996c0.87994,-0.14003 1.87986,-0.26001 2.23985,-0.26001c0.33997,-0.01996 0.57996,-0.09999 0.51995,-0.19998c-0.08,-0.09995 0.09998,-0.11998 0.39998,-0.04001c0.27998,0.06 0.55997,0.04001 0.63995,-0.07997c0.05999,-0.09999 0.23997,-0.14 0.37997,-0.07997c0.15997,0.06001 0.97993,-0.08005 1.79987,-0.32001c0.83994,-0.23996 1.6199,-0.35995 1.71988,-0.29996c0.12,0.06 0.19997,0.01997 0.19997,-0.10004c0,-0.13995 0.13998,-0.19998 0.29998,-0.13995c0.16,0.07999 0.33997,0.03998 0.39996,-0.08002c0.07999,-0.09998 0.2,-0.13997 0.29998,-0.07996c0.07999,0.05997 0.81993,-0.12004 1.61988,-0.39996c0.79993,-0.26001 1.51987,-0.44 1.61987,-0.38c0.08002,0.06 0.16,0 0.16,-0.12c0,-0.11996 0.07999,-0.17995 0.17999,-0.11996c0.07999,0.06001 0.63995,-0.08 1.23989,-0.29997c0.59998,-0.24004 1.25991,-0.44 1.4799,-0.48c0.21999,-0.04001 0.95993,-0.29999 1.65987,-0.57997c0.67995,-0.25996 1.23991,-0.45993 1.23991,-0.41992c0,0.03998 0.47998,-0.14001 1.07991,-0.39999c0.59996,-0.25998 1.13994,-0.41994 1.19992,-0.35994c0.06,0.07997 0.12001,0.01994 0.12001,-0.10001c0,-0.14001 0.06,-0.21997 0.15999,-0.19998c0.15999,0.04001 2.01985,-0.79994 3.49974,-1.55992c0.51996,-0.27997 0.93994,-0.43991 0.93994,-0.37993c0,0.08002 0.25998,-0.05998 0.55997,-0.28c0.29997,-0.19998 1.0399,-0.61996 1.63989,-0.91992c1.23987,-0.57994 2.11983,-1.07991 2.87978,-1.57985c0.27998,-0.18002 0.51994,-0.26001 0.51994,-0.18002c0,0.10002 0.08002,0.06001 0.15999,-0.05997c0.08003,-0.12001 0.59996,-0.47998 1.13992,-0.79997c0.55994,-0.29996 1.11989,-0.67992 1.25989,-0.8199c0.67993,-0.66002 0.95993,-0.66002 1.5399,-0.06c0.31995,0.34001 0.49994,0.59996 0.37996,0.59996c-0.09999,0 0.35997,0.51993 1.01993,1.13988c0.65994,0.61996 1.01991,0.99995 0.79994,0.85992c-0.21997,-0.13998 0.06,0.17998 0.59999,0.69997c0.55994,0.53996 0.97992,1.01991 0.95993,1.09987c-0.02,0.08 0.10001,0.14001 0.28,0.12004c0.17995,0 0.35997,0.09999 0.41994,0.25998c0.06001,0.17999 0,0.21992 -0.17998,0.11998c-0.45999,-0.27997 0.65993,0.77992 1.47989,1.37985c0.39995,0.32004 0.73993,0.66002 0.73993,0.77997c0,0.14001 0.51997,0.71994 1.15994,1.29991c0.61992,0.57994 0.99991,0.99991 0.83992,0.93991c-0.15997,-0.07997 0.14,0.25998 0.67995,0.73996l0.97992,0.87993l-0.77994,0.59999c-0.41997,0.31999 -0.91995,0.73991 -1.11992,0.93988c-0.19995,0.18002 -0.45996,0.33998 -0.55995,0.33998c-0.11998,0 -0.77994,0.39999 -1.47986,0.89993c-0.71994,0.49995 -1.37988,0.89996 -1.4599,0.89996c-0.09999,0 -0.49995,0.21996 -0.91992,0.49992c-0.39996,0.28 -0.73996,0.43996 -0.73996,0.36c0,-0.08 -0.07997,-0.06001 -0.15997,0.06003c-0.21999,0.33995 -5.43959,3.17972 -5.43959,2.95975c0,-0.06001 -0.23996,0.06001 -0.53995,0.25998c-0.31998,0.2 -0.77995,0.47997 -1.05995,0.59993c-2.11981,0.93994 -2.51978,1.11993 -2.69977,1.13991c-0.10001,0.04004 -0.69995,0.29999 -1.29991,0.57999c-0.59995,0.29999 -1.27991,0.58 -1.51988,0.61996c-0.21997,0.03998 -0.87993,0.31995 -1.4599,0.59993c-0.55994,0.29997 -1.11989,0.47997 -1.21988,0.41995c-0.12001,-0.07999 -0.19998,-0.01999 -0.19998,0.12c0,0.13998 -0.06,0.19998 -0.12001,0.12001c-0.05997,-0.05998 -0.57996,0.06001 -1.11992,0.27992c-0.55994,0.22005 -1.05991,0.34003 -1.11992,0.28006c-0.05998,-0.04001 -0.19998,-0.02002 -0.31998,0.07996c-0.19998,0.15999 -2.6398,0.97992 -3.31976,1.11993c-0.15998,0.03998 -0.33997,0.07999 -0.39996,0.09998c-0.06001,0.01999 -0.15998,0.03999 -0.23997,0.01999c-0.06001,0 -0.65997,0.18002 -1.27991,0.38c-0.63995,0.22 -1.27988,0.35999 -1.41988,0.31996c-0.14,-0.05998 -0.25998,-0.02 -0.25998,0.10002c0,0.11996 -0.08,0.15996 -0.16,0.09995c-0.07999,-0.03998 -0.99992,0.14001 -2.03986,0.39998c-1.03991,0.26001 -1.99982,0.43997 -2.15983,0.37997c-0.15998,-0.06 -0.19999,0 -0.12,0.14001c0.09999,0.13997 -0.02,0.17996 -0.37996,0.07999c-0.28001,-0.06003 -0.55997,-0.04001 -0.61998,0.06c-0.05997,0.09996 -0.29996,0.13995 -0.51995,0.07996c-0.21998,-0.05997 -0.39996,0 -0.39996,0.12001c0,0.10002 -0.11996,0.16002 -0.27995,0.10002c-0.16,-0.06003 -0.95995,0.01999 -1.75987,0.19995c-1.53989,0.34 -1.71988,0.35997 -3.15977,0.34c-0.67995,-0.02002 -0.81995,0.03998 -0.59996,0.19998c0.21999,0.14 0.07999,0.15999 -0.53996,0.08002c-0.45995,-0.08002 -0.93991,-0.06003 -1.07992,0c-0.29996,0.19995 -1.03991,0.21994 -7.67941,0.35992c-3.07977,0.06006 -6.27952,0.02 -7.09946,-0.08l-0.00002,0l-0.00005,0l-0.00002,0l0.00001,0l-0.00002,0l-0.00002,0z" id="svg_2"/>
   <path d="m39.65645,174.16954c-2.79979,-2.21983 -5.15961,-4.39967 -7.75941,-7.07947c-0.93992,-0.9799 -1.91986,-1.95982 -2.13982,-2.19983c-0.35998,-0.35997 -1.47991,-1.71989 -2.53984,-3.05975c-0.11998,-0.18001 -0.53994,-0.61998 -0.87991,-0.97995c-0.35999,-0.35997 -0.65996,-0.69995 -0.65996,-0.77997c0,-0.06 -0.19997,-0.33995 -0.43997,-0.59995c-0.25997,-0.25996 -0.67994,-0.79991 -0.9599,-1.19992c-0.28001,-0.37993 -0.69996,-0.95996 -0.93995,-1.25987c-0.25998,-0.3 -0.45996,-0.59996 -0.45996,-0.65996c0,-0.07997 -0.25997,-0.43997 -0.59995,-0.79994c-0.31996,-0.37999 -0.59995,-0.75992 -0.59995,-0.83998c0,-0.10001 -0.39998,-0.71991 -0.89995,-1.35988c-0.49994,-0.65993 -0.89992,-1.25986 -0.89992,-1.35988c0,-0.08 -0.25998,-0.51996 -0.55996,-0.93997c-0.31997,-0.41994 -1.09992,-1.71985 -1.73987,-2.87981c-0.63994,-1.15988 -1.27989,-2.23979 -1.41989,-2.39981c-0.12,-0.15994 -0.43994,-0.79991 -0.67994,-1.39987c-0.25998,-0.59996 -0.59995,-1.21991 -0.75993,-1.33992c-0.17999,-0.13997 -0.25998,-0.25995 -0.17999,-0.25995c0.13999,0 -0.31999,-0.99994 -1.59988,-3.43974c-0.25998,-0.51996 -0.47997,-0.99991 -0.45996,-1.05991c0,-0.06001 -0.15998,-0.51997 -0.39996,-1.01997c-0.21998,-0.51993 -0.39997,-1.0199 -0.39997,-1.11992c0,-0.09996 -0.21999,-0.61992 -0.49997,-1.15988c-0.27999,-0.55997 -0.43997,-0.99994 -0.37997,-0.99994c0.07999,0 0.01999,-0.13994 -0.12,-0.29999c-0.13997,-0.15997 -0.19997,-0.29991 -0.13997,-0.29991c0.07997,0 -0.04,-0.39998 -0.25999,-0.87993c-0.19999,-0.47998 -0.31997,-0.93994 -0.25998,-0.99994c0.08001,-0.06001 0.02001,-0.11998 -0.11998,-0.11998c-0.15999,0 -0.22001,-0.14 -0.14,-0.29997c0.05998,-0.16002 0.04001,-0.29999 -0.04001,-0.29999c-0.07997,0 -0.15998,-0.16 -0.17997,-0.33998c-0.02001,-0.19998 -0.21998,-0.79994 -0.43997,-1.3199c-0.23997,-0.53995 -0.37996,-1.05989 -0.29997,-1.1599c0.06,-0.09999 0,-0.17995 -0.12,-0.17995c-0.12,0 -0.15999,-0.10004 -0.09999,-0.20004c0.08,-0.11998 -0.06,-0.69992 -0.27998,-1.31989c-0.23997,-0.59995 -0.37997,-1.19991 -0.31997,-1.29987c0.08,-0.10004 0.03999,-0.18002 -0.06,-0.18002c-0.1,0 -0.19999,-0.19997 -0.19999,-0.43996c0,-0.25998 -0.23997,-1.23993 -0.51996,-2.19983c-0.27998,-0.95992 -0.45996,-1.87984 -0.39998,-2.05988c0.06,-0.15994 0.01999,-0.29994 -0.11998,-0.29994c-0.12,0 -0.17999,-0.06001 -0.12,-0.16c0.04,-0.08 -0.07999,-0.99992 -0.29998,-2.03984c-0.22,-1.0399 -0.33998,-1.99986 -0.27998,-2.15984c0.06,-0.15998 0,-0.19997 -0.13997,-0.12c-0.14002,0.10001 -0.18,-0.01998 -0.08002,-0.37998c0.06001,-0.27997 0.01999,-0.57993 -0.07999,-0.63992c-0.12,-0.07997 -0.15998,-0.30001 -0.09999,-0.51998c0.07999,-0.19996 0.03999,-0.85992 -0.07999,-1.43986c-0.45998,-2.23986 -0.67996,-5.07966 -0.65995,-8.23943c0,-1.55988 -0.04,-1.95982 -0.14001,-1.39989c-0.09999,0.51999 -0.15999,-0.35995 -0.17998,-2.49977c0,-1.89985 0.06,-3.11977 0.15999,-2.89978c0.08001,0.21997 0.12,-0.55997 0.08001,-1.85991c-0.04001,-1.39986 0,-2.21979 0.11998,-2.13982c0.12,0.06 0.13999,-0.01997 0.07999,-0.19997c-0.07999,-0.15999 -0.06,-0.87994 0,-1.5599c0.15998,-1.4799 0.06,-1.45988 2.99979,-0.59996c0.25998,0.08002 0.31997,0.02001 0.21997,-0.13996c-0.09999,-0.18001 -0.07999,-0.21999 0.06,-0.12002c0.13999,0.08002 0.43997,0.18001 0.67994,0.24001c0.25998,0.05996 0.67994,0.15997 0.95993,0.21997c0.27998,0.05997 0.63995,0.11996 0.79994,0.13998c0.16,0.02001 0.55996,0.16003 0.85994,0.27998c0.71996,0.3 0.99993,0.3 0.81994,0c-0.09998,-0.16 -0.03999,-0.17995 0.19999,-0.09998c0.2,0.07997 0.45996,0.13996 0.57996,0.13996c0.13999,0 0.12,0.08001 -0.06,0.19997c-0.21998,0.14001 -0.13999,0.16003 0.27999,0.12005c0.31997,-0.04004 0.91993,0.01997 1.29991,0.11996c0.39996,0.09998 0.81993,0.2 0.91991,0.21999c0.12,0.02001 0.31997,0.12 0.45996,0.21999c0.14001,0.08002 0.31999,0.10004 0.37999,0.04002c0.06,-0.06004 0.21998,-0.04002 0.33998,0.06001c0.35995,0.27997 1.3799,0.45992 1.21989,0.21992c-0.06001,-0.09999 -0.03999,-0.19997 0.07999,-0.19997c0.1,0 0.25997,0.09998 0.31996,0.19997c0.08001,0.12003 0.18,0.16003 0.25999,0.12003c0.07999,-0.04003 0.15999,0.41995 0.19999,1.03987c0.01999,0.63999 -0.02001,1.03996 -0.1,0.89996c-0.15998,-0.21999 -0.09999,7.25945 0.06,9.93926c0.04,0.71991 0.08001,1.57986 0.08001,1.89985c0,0.33999 0.17998,1.67987 0.39997,2.97977c0.21998,1.31991 0.33996,2.5598 0.27996,2.77979c-0.05998,0.21997 -0.03997,0.33996 0.06,0.27998c0.09999,-0.06001 0.18,0.17999 0.2,0.53998c0.01999,0.35992 0.21998,1.39986 0.43996,2.29978c0.23998,0.89996 0.37997,1.7199 0.31999,1.83987c-0.08001,0.10004 -0.04,0.18001 0.07999,0.18001c0.11998,0 0.15998,0.12001 0.09998,0.27998c-0.05999,0.15999 0,0.33995 0.09999,0.41997c0.12,0.05998 0.18,0.19997 0.14,0.27998c-0.06,0.08002 0.06,0.69997 0.27998,1.37991c0.2,0.6799 0.29998,1.23991 0.23998,1.23991c-0.06001,0 -0.01999,0.09996 0.1,0.21999c0.12,0.11996 0.17998,0.35995 0.12,0.53996c-0.1,0.21992 -0.06,0.25996 0.13997,0.13994c0.18,-0.09995 0.22001,-0.07996 0.12002,0.07999c-0.10001,0.14001 0.03996,0.69998 0.25997,1.23994c0.23997,0.53995 0.37997,1.07996 0.31997,1.17992c-0.06001,0.11996 -0.01999,0.19997 0.1,0.19997c0.11998,0 0.15998,0.09999 0.09999,0.19998c-0.06,0.12 -0.02,0.19997 0.09998,0.19997c0.12,0 0.18,0.08 0.12,0.16003c-0.04,0.07999 0.07999,0.53996 0.29998,1.01991c0.19999,0.47995 0.31996,0.93991 0.25997,1.03996c-0.05998,0.09998 0,0.17993 0.12002,0.17993c0.11998,0 0.15998,0.10001 0.09999,0.20004c-0.06002,0.11995 -0.02001,0.19997 0.07997,0.19997c0.12,0 0.19999,0.05997 0.17999,0.15997c-0.04001,0.08 0.19999,0.77994 0.49997,1.5399c0.83992,2.07982 1.01993,2.4798 1.63987,3.75972c0.31996,0.63994 0.59995,1.27991 0.61996,1.41988c0.01999,0.13998 0.27998,0.63995 0.55994,1.07991c0.27998,0.45999 0.47997,0.83995 0.41997,0.83995c-0.06,0 0.12,0.34001 0.39998,0.73999c0.27997,0.41995 0.49997,0.85988 0.49997,0.99986c0,0.14 0.09998,0.25998 0.23997,0.25998c0.11999,0 0.15999,0.06 0.09999,0.11998c-0.08,0.07999 0.07999,0.42003 0.31996,0.75998c0.49997,0.69992 1.01993,1.57982 1.3799,2.31981c0.14,0.27992 0.37999,0.61995 0.51999,0.77992c0.13997,0.14 0.41995,0.57996 0.61994,0.99994c0.21998,0.39995 0.57996,0.91991 0.81993,1.17993c0.21998,0.23996 0.33998,0.43996 0.25998,0.43996c-0.08001,0 -0.06,0.08 0.03999,0.15999c0.12,0.08 0.65995,0.77995 1.1999,1.5399c0.53997,0.77995 1.13992,1.57985 1.35991,1.79985c0.19999,0.22 0.83994,0.97992 1.37989,1.69992c2.31983,2.97975 6.51951,7.37941 9.15931,9.59926c0.69994,0.59996 1.39989,1.21988 1.55987,1.33989c0.14,0.13998 0.43997,0.37994 0.67997,0.53996c0.39996,0.29999 0.39996,0.29999 -0.51997,1.6998c-0.49995,0.78 -0.91992,1.47995 -0.91992,1.57994c0,0.10002 -0.21999,0.37996 -0.49997,0.63997c-0.25999,0.23996 -0.43996,0.53993 -0.37996,0.61992c0.06,0.09999 0,0.17999 -0.12,0.17999c-0.11998,0 -0.19999,0.15999 -0.17997,0.35994c0.05999,0.71994 -0.02002,1.25989 -0.21999,1.13994c-0.19999,-0.11998 -1.59988,1.2399 -1.59988,1.55983c0,0.10002 -0.43996,0.81996 -0.99993,1.6199c-0.53995,0.79993 -0.99991,1.53992 -0.99991,1.63988c0,0.12001 -0.21999,0.41995 -0.49997,0.67996c-0.27998,0.25995 -0.49997,0.57996 -0.49997,0.71997c0,0.49991 -0.31997,0.41997 -1.21991,-0.31999l0,0l-0.00004,0.00003l0,-0.00002z" id="svg_3"/>
   <path d="m105.2715,172.78963c0,-0.27998 -0.99993,-2.63976 -1.19991,-2.81975c-0.05999,-0.06001 -0.11998,-0.24001 -0.15999,-0.39998c-0.03999,-0.15997 -0.2,-0.61996 -0.37997,-0.99994c-0.15999,-0.37997 -0.49996,-1.19991 -0.75993,-1.79987c-1.49989,-3.55972 -2.51981,-5.85954 -2.91978,-6.69952c-0.21999,-0.43993 -0.41998,-0.99989 -0.45996,-1.23988c-0.06001,-0.21997 -0.25999,-0.71992 -0.45997,-1.09995c-0.19998,-0.36 -0.35999,-0.73993 -0.35999,-0.85989c-0.02,-0.09999 -0.25998,-0.65994 -0.55996,-1.23991c-0.29998,-0.57994 -0.53996,-1.1799 -0.53996,-1.35988c0,-0.16 -0.09998,-0.3 -0.24,-0.3c-0.11999,0 -0.17996,-0.05997 -0.09998,-0.11998c0.06,-0.08 -0.09999,-0.55994 -0.35999,-1.07994c-0.25998,-0.51993 -0.41998,-0.99988 -0.35997,-1.07991c0.07999,-0.05997 0,-0.12 -0.13998,-0.12c-0.13999,0 -0.2,-0.05997 -0.13999,-0.13995c0.08,-0.06 -0.04,-0.39998 -0.25998,-0.73996c-0.19998,-0.33998 -0.41998,-0.85988 -0.47995,-1.11992c-0.04002,-0.27992 -0.37999,-1.01991 -0.71996,-1.63986c-0.33997,-0.63994 -0.57996,-1.1599 -0.51994,-1.1599c0.07999,0 -0.10001,-0.43994 -0.35999,-0.97992c-0.27998,-0.53996 -0.43996,-1.01994 -0.37997,-1.09996c0.08,-0.05998 0,-0.11998 -0.13998,-0.11998c-0.13999,0 -0.21999,-0.05998 -0.13999,-0.11996c0.05999,-0.07999 -0.09999,-0.55994 -0.37997,-1.09996c-0.25999,-0.53995 -0.43996,-0.97992 -0.37997,-0.97992c0.03999,0 -0.21999,-0.57999 -0.59996,-1.29987c-0.39996,-0.71997 -0.65993,-1.29994 -0.59995,-1.29994c0.06,0 -0.12,-0.43994 -0.37997,-0.97992c-0.27998,-0.53995 -0.43996,-1.01993 -0.37997,-1.09993c0.07999,-0.05998 0,-0.11998 -0.13998,-0.11998c-0.13998,0 -0.21998,-0.05995 -0.13998,-0.11998c0.05998,-0.07999 -0.16,-0.67996 -0.49998,-1.35991c-0.35997,-0.65991 -0.61995,-1.29991 -0.59995,-1.39987c0.03999,-0.08 -0.17999,-0.53995 -0.43997,-1.01996c-0.27998,-0.45996 -0.43997,-0.8999 -0.37997,-0.9799c0.05999,-0.06 0.02001,-0.12 -0.11998,-0.12c-0.14,0 -0.19999,-0.07997 -0.12001,-0.17996c0.06001,-0.09999 -0.07998,-0.5 -0.29996,-0.87993c-0.23997,-0.37994 -0.45998,-0.89993 -0.49995,-1.13995c-0.04,-0.23993 -0.35997,-0.91991 -0.67995,-1.49985c-0.31998,-0.57997 -0.53996,-1.09991 -0.47997,-1.1599c0.07999,-0.08003 -0.31998,-0.95998 -0.87994,-1.91992c-0.02,-0.01994 -0.15998,0.02003 -0.29997,0.10004c-0.14,0.09998 -1.23991,0.17995 -2.45983,0.19997c-3.47974,0.02002 -11.6991,0.37994 -16.37875,0.69994c-1.63987,0.12004 -3.69971,0.16003 -4.55968,0.08c-1.11989,-0.09998 -1.55987,-0.08 -1.55987,0.08002c0,0.15997 -0.63994,0.21996 -2.13984,0.17995c-2.07983,-0.04002 -9.31929,0.15997 -10.95918,0.31995c-0.43996,0.04002 -2.23982,0.14001 -3.99968,0.21999c-1.75987,0.06001 -3.35975,0.17999 -3.57973,0.23997c-0.23997,0.06004 -0.31997,0.02 -0.23997,-0.11998c0.17999,-0.27998 -0.33998,-0.27998 -0.61996,0c-0.14,0.13998 -0.83993,0.16 -2.09983,0.06001c-2.23984,-0.16 -2.29984,0.07999 0.79992,-2.51979c1.05993,-0.89996 2.25985,-1.91985 2.63982,-2.29987c1.49988,-1.41989 3.41973,-3.11972 3.9597,-3.53972c0.69993,-0.51994 2.59979,-2.13983 3.81971,-3.25977c0.49995,-0.43996 1.21992,-1.0799 1.57987,-1.39986c0.35997,-0.3 0.99994,-0.87997 1.39989,-1.2599c0.39997,-0.39996 1.27991,-1.15996 1.93987,-1.69987c0.65995,-0.55994 1.57989,-1.3399 2.03984,-1.77987c0.45996,-0.42001 1.05991,-0.91991 1.2999,-1.07991c0.25998,-0.17999 0.79992,-0.67995 1.1999,-1.11993c0.41996,-0.43996 1.15992,-1.11992 1.65987,-1.49989c1.21991,-0.9799 4.23968,-3.55972 5.09961,-4.35963c2.71981,-2.51983 3.69973,-3.39977 4.07971,-3.65974c0.55994,-0.35999 2.39983,-1.95988 3.7597,-3.23979c0.83994,-0.77991 0.97993,-0.9999 0.83994,-1.39987c-0.07999,-0.25996 -0.15999,-0.59995 -0.17999,-0.75994c0,-0.15998 -0.25999,-0.81993 -0.55997,-1.47988c-0.29998,-0.63998 -0.47996,-1.23991 -0.41996,-1.3399c0.06001,-0.09998 0,-0.17999 -0.13998,-0.17999c-0.13999,0 -0.2,-0.05994 -0.12,-0.11996c0.06002,-0.08001 -0.01999,-0.39998 -0.17999,-0.71994c-0.17999,-0.33997 -0.33997,-0.79996 -0.35997,-1.03996c-0.03999,-0.21999 -0.29996,-0.9399 -0.57995,-1.59985c-0.29998,-0.63998 -0.47997,-1.23993 -0.41998,-1.3399c0.06001,-0.09998 0,-0.18 -0.11997,-0.18c-0.12,0 -0.15999,-0.07997 -0.09998,-0.19997c0.05997,-0.09998 0.05997,-0.2 -0.04002,-0.2c-0.08002,0 -0.33997,-0.55993 -0.53997,-1.23988c-0.37997,-1.19991 -1.01993,-2.91978 -2.03983,-5.43959c-0.25999,-0.63998 -0.41998,-1.2599 -0.33998,-1.37991c0.07999,-0.12 0.02,-0.14001 -0.13998,-0.03999c-0.19999,0.11996 -0.23997,0.07999 -0.14,-0.14c0.06001,-0.17995 -0.09998,-0.75995 -0.35997,-1.3199c-0.25997,-0.55997 -0.41998,-1.05994 -0.33998,-1.11993c0.06001,-0.06001 0,-0.11996 -0.13998,-0.11996c-0.13998,0 -0.19997,-0.08001 -0.13998,-0.15998c0.05999,-0.09998 -0.12,-0.63997 -0.39998,-1.21992c-0.25998,-0.57996 -0.51997,-1.3399 -0.57994,-1.65987c-0.06002,-0.33997 -0.27998,-0.93993 -0.49998,-1.35989c-0.19999,-0.41996 -0.31997,-0.79996 -0.25998,-0.87994c0.08,-0.06001 0.02,-0.12 -0.11998,-0.12c-0.14001,0 -0.19999,-0.08 -0.12002,-0.19997c0.06,-0.10004 -0.11998,-0.63998 -0.39996,-1.19994c-0.27999,-0.55991 -0.45996,-1.09991 -0.39997,-1.19991c0.08,-0.12 0.01999,-0.19997 -0.1,-0.19997c-0.11998,0 -0.15998,-0.08001 -0.09999,-0.2c0.06,-0.09998 0.02,-0.19997 -0.11997,-0.19997c-0.14,0 -0.20002,-0.05999 -0.12001,-0.12c0.05998,-0.07998 -0.01999,-0.45995 -0.18,-0.85992c-0.17997,-0.39999 -0.33996,-0.85997 -0.35997,-1.01991c-0.02,-0.16002 -0.19999,-0.65995 -0.39996,-1.09995c-0.47998,-1.09992 -0.73994,-1.73985 -0.81993,-2.09985c-0.04,-0.15993 -0.25998,-0.73992 -0.47998,-1.29989c-0.75993,-1.93985 -1.41988,-3.81968 -1.41988,-4.05968c0,-0.12 -0.1,-0.23996 -0.21998,-0.23996c-0.10001,0 -0.16,-0.08001 -0.10001,-0.16001c0.03999,-0.08002 -0.07999,-0.53996 -0.29998,-1.01994c-0.19999,-0.47996 -0.41997,-1.07991 -0.45996,-1.31987c-0.06,-0.26001 -0.25999,-0.87998 -0.47998,-1.35993c-0.21998,-0.49992 -0.35998,-0.9599 -0.27996,-1.01991c0.05998,-0.06 0,-0.11999 -0.13998,-0.11999c-0.14,0 -0.18,-0.09999 -0.12,-0.19997c0.05999,-0.09999 0.01999,-0.20001 -0.09999,-0.20001c-0.12,0 -0.18,-0.07998 -0.10001,-0.19997c0.06,-0.09999 -0.13997,-0.71995 -0.45996,-1.39991c-0.67994,-1.39988 -0.51996,-1.49986 0.89995,-0.55992c0.51994,0.35995 1.31988,0.8399 1.75985,1.05989c0.43997,0.21998 0.97994,0.53995 1.19992,0.71996c0.21998,0.17999 0.85994,0.57997 1.39989,0.87992c0.55994,0.3 1.03992,0.59996 1.09992,0.67997c0.05999,0.07998 0.55996,0.35995 1.09991,0.63993c0.55997,0.26001 1.35991,0.71995 1.77987,1.01995c0.41998,0.31996 0.85994,0.55992 0.97992,0.55992c0.10001,0 0.51997,0.24 0.91993,0.53999c0.39999,0.31998 1.15992,0.77995 1.71989,1.05993c0.53995,0.27996 1.1199,0.61993 1.27988,0.7599c0.13998,0.14001 0.65995,0.44 1.1199,0.66c0.47998,0.21994 1.01995,0.57993 1.21992,0.79992c0.18,0.20001 0.43996,0.37997 0.57996,0.37997c0.14,0 0.79993,0.35999 1.4999,0.81997c0.69994,0.43993 1.49988,0.89991 1.75986,0.99989c0.27995,0.09998 0.81992,0.43996 1.21989,0.73996c0.39999,0.29996 1.07993,0.71992 1.51987,0.93993c0.43996,0.21999 1.05994,0.59995 1.35992,0.8399c0.31996,0.26001 0.67994,0.45998 0.81993,0.45998c0.13998,0 0.61996,0.23999 1.03992,0.55997c0.41998,0.3 1.13992,0.71994 1.5799,0.93993c0.43995,0.21999 0.97991,0.53995 1.1999,0.7199c0.21999,0.20001 0.77995,0.54 1.2599,0.77998c0.45998,0.23997 0.89994,0.51994 0.95994,0.61996c0.06001,0.09995 0.43996,0.33994 0.83994,0.53992c1.27991,0.63998 4.11969,2.29984 4.55965,2.67982c0.21999,0.19997 0.47997,0.35995 0.55996,0.35995c0.17999,0 3.17976,1.75986 4.15968,2.43983c0.91993,0.61996 2.33982,1.3199 2.39983,1.17989c0.03999,-0.06001 0.55994,-0.49992 1.1599,-0.95988c0.59997,-0.45998 1.37991,-1.07991 1.73988,-1.39993c0.35999,-0.29996 1.23991,-0.99993 1.97987,-1.55986c0.73994,-0.53996 1.53988,-1.19991 1.77987,-1.4399c0.23997,-0.25999 0.53996,-0.45998 0.65995,-0.45998c0.12,0 0.23997,-0.06001 0.27998,-0.14c0.07999,-0.21999 1.85986,-1.61987 2.91977,-2.33981c0.47998,-0.31996 0.91993,-0.67996 0.99993,-0.81993c0.07999,-0.12 0.37997,-0.39998 0.65993,-0.59995c0.27998,-0.21999 1.35991,-1.03992 2.39983,-1.81986c1.03992,-0.77995 2.11983,-1.63987 2.39983,-1.89983c0.29998,-0.26002 1.13992,-0.91996 1.85986,-1.47989c0.73994,-0.53999 1.61987,-1.23992 1.93984,-1.53992c0.31998,-0.29995 0.57996,-0.47996 0.57996,-0.39994c0,0.07997 0.21999,-0.09999 0.47997,-0.39998c0.25999,-0.31997 0.51997,-0.55997 0.59996,-0.55997c0.13998,0 2.27983,-1.67986 3.11976,-2.43979c0.27999,-0.24 0.55997,-0.45998 0.61996,-0.45998c0.06001,0 0.25999,-0.15998 0.45997,-0.33999c0.17999,-0.19996 1.13993,-0.93992 2.11987,-1.67989c0.99989,-0.71991 1.79984,-1.39987 1.79984,-1.49986c0,-0.09998 0.14001,-0.18 0.29997,-0.18c0.15999,0 0.29997,-0.07998 0.29997,-0.17999c0,-0.07998 0.95995,-0.89991 2.15984,-1.77984c1.1799,-0.87993 2.4198,-1.85985 2.75981,-2.17987c0.33995,-0.29995 0.81993,-0.69993 1.07991,-0.85991c0.37996,-0.25997 1.49988,-1.11993 2.33983,-1.79986c0.35997,-0.3 0.45996,0.03999 0.25996,0.87994c-0.09999,0.41995 -0.12001,0.8999 -0.05998,1.03992c0.05998,0.15998 0,0.27998 -0.14,0.27998c-0.12001,0 -0.15999,0.09999 -0.09999,0.19997c0.06,0.11999 0.01999,0.19997 -0.09999,0.19997c-0.14,0 -0.2,0.14001 -0.14,0.3c0.08,0.15998 -0.01999,0.79992 -0.19998,1.43989c-0.17998,0.63994 -0.33997,1.3599 -0.36,1.59988c-0.01996,0.25997 -0.07999,0.51994 -0.15999,0.57994c-0.05997,0.06 -0.05997,0.23999 0,0.39998c0.06001,0.15998 0,0.27997 -0.11998,0.27997c-0.12001,0 -0.15999,0.13997 -0.09999,0.29996c0.08,0.15999 0.03999,0.3 -0.03998,0.3c-0.10002,0 -0.19998,0.35999 -0.21997,0.79996c-0.04001,0.43993 -0.14,0.97991 -0.25998,1.1999c-0.12001,0.21994 -0.22,0.71991 -0.23999,1.09992c-0.01999,0.37996 -0.10002,0.69994 -0.20001,0.69994c-0.09998,0 -0.11995,0.07997 -0.05997,0.19996c0.05997,0.09998 -0.08,0.83996 -0.29997,1.61987c-0.23999,0.79995 -0.47998,1.85988 -0.53995,2.35985c-0.06001,0.49997 -0.22,1.29989 -0.37996,1.75987c-0.16,0.47995 -0.31996,1.1399 -0.33998,1.45986c-0.01999,0.32001 -0.11998,0.59995 -0.22,0.59995c-0.08,0 -0.11995,0.18004 -0.06,0.39998c0.06,0.21999 0.04001,0.39999 -0.03999,0.39999c-0.09999,0 -0.15996,0.25997 -0.17998,0.57998c0,0.31997 -0.16,1.01991 -0.33998,1.53988c-0.15999,0.51994 -0.31999,1.23989 -0.33998,1.59985c-0.01999,0.37997 -0.09999,0.67995 -0.17998,0.67995c-0.08,0 -0.10002,0.17997 -0.04002,0.39999c0.06001,0.24001 0,0.39996 -0.12001,0.39996c-0.13997,0 -0.19997,0.08001 -0.13997,0.17999c0.06001,0.08001 -0.05997,0.77995 -0.27997,1.51991c-0.22,0.73991 -0.33998,1.41988 -0.29997,1.49986c0.03999,0.08002 -0.17998,1.09991 -0.51996,2.27984c-0.31996,1.17989 -0.53995,2.21986 -0.47998,2.33981c0.08,0.09999 0.04002,0.18002 -0.05997,0.18002c-0.12001,0 -0.19998,0.19997 -0.17999,0.45998c0,0.24 -0.15999,0.99988 -0.33998,1.69986c-0.17998,0.67995 -0.27997,1.33987 -0.21996,1.4399c0.05997,0.12 0.01999,0.19997 -0.10002,0.19997c-0.14,0 -0.19998,0.13997 -0.12001,0.3c0.06,0.15999 0.01999,0.29996 -0.09999,0.29996c-0.11998,0 -0.17998,0.14001 -0.11998,0.3c0.08,0.15998 0.03998,0.33994 -0.08,0.39994c-0.09999,0.08002 -0.13997,0.22002 -0.05997,0.32001c0.05997,0.09999 -0.04002,0.63995 -0.22,1.17989c-0.17998,0.53999 -0.33998,1.2599 -0.33998,1.59988c-0.01999,0.31995 -0.09999,0.59995 -0.22,0.59995c-0.10001,0 -0.14,0.14001 -0.06,0.3c0.06,0.16 0.01999,0.29995 -0.09999,0.29995c-0.12,0 -0.17998,0.14001 -0.09998,0.3c0.05998,0.16 -0.06001,0.93993 -0.28001,1.73985c-0.19995,0.77997 -0.33995,1.51987 -0.27997,1.59988c0.06,0.08002 0,0.15997 -0.12,0.15997c-0.13998,0 -0.17999,0.16 -0.09999,0.39999c0.06,0.21996 0.06,0.39998 -0.04001,0.39998c-0.09999,0 -0.17999,0.15997 -0.17999,0.35995c-0.01999,0.18 -0.07997,0.66 -0.15997,1.03992c-0.12,0.57999 -0.08,0.73997 0.25996,0.89996c0.21997,0.12 0.93994,0.57993 1.61986,1.05991c0.67996,0.45995 1.29991,0.83991 1.37991,0.83991c0.06,0 0.35997,0.21999 0.65996,0.49997c0.29997,0.28001 0.59996,0.49995 0.67996,0.49995c0.07999,0 0.43996,0.21999 0.79993,0.49997c0.36,0.27998 0.69998,0.49995 0.75996,0.49995c0.07999,0 0.73993,0.41996 1.47989,0.95995c0.73993,0.51994 1.47989,1.03992 1.65987,1.1399c0.17999,0.12 0.87994,0.57999 1.5399,1.05994c0.67993,0.45998 1.29988,0.8399 1.39987,0.8399c0.10001,0 0.33998,0.18 0.55997,0.42c0.2,0.23994 0.71994,0.61993 1.15991,0.85992c1.3199,0.71996 1.5199,0.85995 2.03984,1.29993c0.25998,0.21996 0.55997,0.41994 0.63997,0.41994c0.07997,0 0.45996,0.25998 0.83992,0.59996c0.37999,0.31997 0.75995,0.57998 0.83994,0.59998c0.15999,0 6.99948,4.55962 7.15947,4.75962c0.05998,0.07997 0.29997,0.25998 0.55995,0.4c0.23997,0.11995 0.63995,0.35995 0.89995,0.49989c0.23996,0.12 0.71994,0.45998 1.05992,0.73992c0.35997,0.28003 1.19992,0.85999 1.87987,1.29993c0.67993,0.43998 1.57985,1.01995 1.97984,1.29993c0.41997,0.27998 1.05994,0.69994 1.43988,0.93993c0.37996,0.23994 0.77994,0.53996 0.91994,0.63995c0.14,0.11999 0.31999,0.21996 0.39998,0.21996c0.08,0.02003 0.47998,0.28001 0.85995,0.59995c0.37996,0.34 0.77994,0.59995 0.87993,0.59995c0.09999,0 0.63994,0.33997 1.19992,0.75995c0.55994,0.43995 1.29988,0.91991 1.61986,1.09991c0.33995,0.16 0.77992,0.47997 0.99991,0.67995c0.52,0.43996 1.4799,1.03992 1.95985,1.19991c0.47998,0.15997 0.41997,0.45998 -0.10002,0.45998c-0.83992,0.01997 -3.25974,0.19997 -3.95967,0.29996c-1.05992,0.17999 -3.57973,0.33998 -4.65964,0.31996c-0.67996,-0.01997 -0.91995,0.06001 -0.81996,0.2c0.10002,0.18002 -0.06,0.2 -0.57994,0.09999c-0.39998,-0.08 -2.07988,0.06001 -3.87973,0.27998c-1.73984,0.23994 -3.55971,0.37997 -4.05968,0.31998c-0.67993,-0.08003 -0.79994,-0.06001 -0.49995,0.07999c0.27995,0.13997 0.08,0.17995 -0.73996,0.07997c-0.81995,-0.07997 -1.1599,-0.03999 -1.1599,0.12c0,0.16 -0.23996,0.2 -0.79994,0.09999c-0.41997,-0.07999 -0.87996,-0.05997 -1.01993,0c-0.12001,0.07999 -0.71994,0.17999 -1.33989,0.19997c-0.63995,0.02002 -2.05983,0.16003 -3.19975,0.27998c-1.13988,0.14 -2.23984,0.17999 -2.43982,0.12c-0.19998,-0.06001 -0.41995,-0.02 -0.49994,0.10004c-0.08,0.13995 -0.47998,0.17995 -1.05992,0.09996c-0.69995,-0.09996 -0.85994,-0.08002 -0.63994,0.07999c0.22,0.15997 0.04001,0.17999 -0.63995,0.10002c-0.67995,-0.10002 -0.95995,-0.06001 -0.95995,0.09993c0,0.16003 -0.15997,0.2 -0.37994,0.12c-0.2,-0.05997 -1.39992,0 -2.63982,0.12006c-1.2599,0.13998 -2.75978,0.25996 -3.33975,0.25996c-0.55995,0.01999 -1.03993,0.07999 -1.03993,0.16c0,0.07996 -0.41997,0.13998 -0.93993,0.13998c-1.89986,-0.04002 -9.17928,0.65993 -9.41927,0.91991c-0.03999,0.04002 -0.12,0.33997 -0.16,0.69995c-0.06001,0.33997 -0.23999,0.99995 -0.41998,1.45988c-0.15999,0.45998 -0.33997,1.13988 -0.37999,1.51991c-0.05997,0.35994 -0.23997,0.99989 -0.39996,1.39985c-0.15999,0.39999 -0.31998,0.95996 -0.31998,1.27995c-0.02,0.29999 -0.10001,0.53995 -0.2,0.53995c-0.09998,0 -0.12,0.09999 -0.05997,0.19997c0.05997,0.12001 0.01999,0.20004 -0.10001,0.20004c-0.11998,0 -0.17999,0.07996 -0.11998,0.17995c0.05997,0.10002 -0.1,0.83995 -0.35997,1.63992c-0.25999,0.81992 -0.43999,1.53986 -0.37997,1.61986c0.04002,0.10002 -0.02,0.15996 -0.13998,0.15996c-0.12,0 -0.17999,0.08 -0.10001,0.17999c0.06001,0.11996 -0.12,0.83995 -0.39996,1.63986c-0.25999,0.77997 -0.43996,1.49991 -0.37997,1.5999c0.05999,0.09999 0,0.17998 -0.12,0.17998c-0.11998,0 -0.17999,0.08 -0.11998,0.16c0.03999,0.08002 -0.07999,0.67995 -0.29998,1.31992c-0.19997,0.63998 -0.31998,1.23985 -0.25998,1.33986c0.06001,0.10002 0.02,0.17999 -0.09999,0.17999c-0.12,0 -0.15999,0.14003 -0.1,0.29999c0.07999,0.15994 0.03999,0.3 -0.05999,0.3c-0.09999,0 -0.19998,0.11998 -0.19998,0.25998c0,0.13997 -0.14,0.7399 -0.33997,1.33986c-0.17999,0.60002 -0.37997,1.27992 -0.41998,1.49991c-0.03999,0.21997 -0.07999,0.3999 -0.09999,0.3999c-0.02,0 -0.06001,0.18005 -0.09998,0.40002c-0.03999,0.21997 -0.2,0.81992 -0.37997,1.35988c-0.16,0.51994 -0.29998,0.97992 -0.31997,1.03987c0,0.06003 0,0.12004 -0.02,0.16005c0,0.02 -0.04002,0.25996 -0.06001,0.49995c-0.03999,0.25995 -0.13998,0.53995 -0.23997,0.59995c-0.10001,0.07997 -0.17999,0.23999 -0.17999,0.34001c0,0.19997 -0.43996,1.85985 -1.11991,4.11969c-0.2,0.71991 -0.41998,1.57985 -0.45998,1.89983c-0.05998,0.32001 -0.31998,1.21989 -0.59995,1.97989c-0.3,0.77992 -0.57996,1.75987 -0.63998,2.17976c-0.05999,0.44002 -0.21999,1.07996 -0.37997,1.43996c-0.13998,0.35994 -0.31996,0.99988 -0.39996,1.41989c-0.06001,0.41994 -0.27998,1.23987 -0.49995,1.79988c-0.21999,0.57996 -0.33997,1.19989 -0.25999,1.3799c0.09998,0.25995 0.06001,0.29994 -0.13998,0.17998c-0.2,-0.11998 -0.23997,-0.08 -0.14,0.15997c0.06001,0.20003 0.03999,0.34 -0.06001,0.34c-0.09999,0 -0.13998,0.13998 -0.07999,0.29996c0.07999,0.16003 0.02002,0.3 -0.11998,0.3c-0.12,0 -0.17997,0.07997 -0.12,0.17999c0.06001,0.09996 -0.02,0.55998 -0.19997,1.03987c-0.16,0.48 -0.33997,1.13994 -0.37997,1.4399c-0.16,1.21994 -1.09991,3.57979 -1.09991,2.75981l0,0l-0.00003,-0.00008l-0.00002,0l0.00003,0.00002l-0.00001,0l0.00001,0z" id="svg_4"/>
   <path d="m169.70663,165.2702c-0.45996,-0.47995 -0.87993,-0.79993 -0.95993,-0.71989c-0.07999,0.05992 -0.07999,0.01994 -0.01999,-0.12004c0.07999,-0.12 -0.33998,-0.65996 -0.99992,-1.25992c-0.63997,-0.57994 -1.01993,-0.9799 -0.85994,-0.89993c0.15999,0.06003 -0.21997,-0.35997 -0.83994,-0.95992c-0.63995,-0.59993 -1.15991,-1.15991 -1.15991,-1.2599c0,-0.07999 -0.56,-0.67996 -1.2399,-1.3399c-0.69995,-0.63991 -1.11992,-1.0999 -0.95993,-1.03992c0.15996,0.08 -0.04001,-0.16 -0.43997,-0.49997c-0.41995,-0.35994 -0.69995,-0.73993 -0.61996,-0.85991c0.06,-0.09999 0.02002,-0.13998 -0.07999,-0.07999c-0.23999,0.13995 -0.91994,-0.51999 -0.73993,-0.72c0.05998,-0.06 -0.12001,-0.25998 -0.39996,-0.43991l-0.51999,-0.33998l1.03995,-1.23993c0.57994,-0.65994 1.0999,-1.25992 1.1599,-1.31989c0.06001,-0.06003 0.45996,-0.53996 0.89993,-1.09996c0.41997,-0.53995 0.99992,-1.23984 1.25989,-1.51984c0.46002,-0.49997 1.31993,-1.6799 2.31984,-3.17979c0.25998,-0.37996 0.61996,-0.81989 0.79997,-0.97989c0.17998,-0.13998 0.31995,-0.36 0.31995,-0.45998c0,-0.10002 0.22,-0.47995 0.49995,-0.83995c0.27998,-0.36 0.49997,-0.75996 0.49997,-0.85989c0,-0.12003 0.13998,-0.32001 0.29996,-0.45998c0.16,-0.14 0.42,-0.47998 0.58,-0.77998c0.13997,-0.27998 0.45996,-0.87991 0.69994,-1.3199c0.23999,-0.41994 0.41998,-0.69994 0.41998,-0.59996c0,0.33998 3.7997,-7.07944 3.8797,-7.57941c0.01999,-0.12004 0.23996,-0.60002 0.47998,-1.05995c0.23996,-0.45999 0.43997,-0.97992 0.43997,-1.1599c0,-0.16 0.10001,-0.29994 0.21999,-0.29994c0.10002,0 0.13997,-0.08005 0.08,-0.20004c-0.06001,-0.09998 -0.01999,-0.19997 0.09999,-0.19997c0.12001,0 0.17998,-0.08 0.12001,-0.15999c-0.05998,-0.09996 0.03998,-0.41995 0.2,-0.73994c0.15997,-0.29996 0.31996,-0.77993 0.37996,-1.0799c0.03999,-0.27997 0.27998,-0.91995 0.49995,-1.3799c0.23999,-0.47995 0.43999,-1.03993 0.45998,-1.25987c0.02,-0.19997 0.09999,-0.37999 0.20001,-0.37999c0.09999,0 0.14,-0.14001 0.05998,-0.3c-0.05998,-0.15996 0,-0.29996 0.12,-0.29996c0.11998,0 0.18002,-0.05997 0.09999,-0.11996c-0.06,-0.06001 0.05998,-0.61996 0.29997,-1.23994c0.22,-0.59993 0.41997,-1.29988 0.41997,-1.55984c0,-0.25999 0.08,-0.47995 0.17999,-0.47995c0.09999,0 0.13997,-0.08002 0.07999,-0.16003c-0.06,-0.09998 0.08,-0.71996 0.27998,-1.39986c0.21999,-0.67995 0.33998,-1.37991 0.27997,-1.53987c-0.07997,-0.16 -0.01999,-0.30002 0.09999,-0.30002c0.12001,0 0.15999,-0.13995 0.10002,-0.29993c-0.08,-0.16003 -0.02,-0.3 0.12001,-0.3c0.12,0 0.17998,-0.07997 0.09998,-0.20002c-0.06,-0.09995 0.06001,-0.9399 0.27998,-1.83984c0.21997,-0.91997 0.35997,-1.87988 0.27997,-2.13984c-0.09999,-0.35997 -0.06,-0.43996 0.13997,-0.31998c0.19998,0.12003 0.22,0.03999 0.12001,-0.37994c-0.06003,-0.28 -0.06003,-0.51998 0.03999,-0.51998c0.07999,0 0.15999,-0.37997 0.15999,-0.83996c0,-0.47995 0.12001,-1.65982 0.25998,-2.63979c0.13997,-0.97993 0.22,-2.03983 0.17999,-2.33981c-0.05998,-0.31998 0,-0.57996 0.09998,-0.57996c0.09999,0 0.13998,-0.67995 0.06001,-1.63992c-0.08,-1.07991 -0.06001,-1.51986 0.06,-1.2599c0.11998,0.25996 0.17999,-0.69994 0.17999,-2.7998c-0.01999,-2.15984 -0.06001,-2.9398 -0.17999,-2.39984c-0.09999,0.55998 -0.13997,0.27998 -0.07999,-0.99989c0.05997,-1.69987 -0.06001,-3.43977 -0.41998,-6.19958c-0.10002,-0.65993 -0.15999,-1.47987 -0.17998,-1.83984c0,-0.33997 -0.08,-0.57996 -0.17999,-0.51997c-0.07999,0.06004 -0.10002,-0.15997 -0.02002,-0.49995c0.06001,-0.35996 0.04001,-0.65992 -0.09999,-0.73992c-0.09999,-0.06001 -0.15999,-0.21999 -0.09999,-0.31998c0.08,-0.10004 -0.06,-0.93993 -0.29999,-1.87986c-0.23996,-0.93993 -0.35997,-1.77988 -0.29997,-1.89989c0.06001,-0.09998 0.02,-0.19997 -0.09998,-0.19997c-0.16,0 -0.17999,-0.14001 -0.09999,-0.33999c0.07999,-0.19997 0.15996,-0.45993 0.15996,-0.59995c0,-0.12 0.12001,-0.17995 0.28,-0.12c0.13998,0.06001 0.65994,-0.13995 1.15991,-0.41994c0.49997,-0.29996 0.89993,-0.43996 0.89993,-0.31998c0,0.12 0.37996,0 0.85994,-0.23999c1.2999,-0.69994 1.95984,-0.95992 1.83986,-0.75993c-0.06001,0.12 0.01999,0.13998 0.17998,0.07996c0.18002,-0.05999 0.31996,-0.19996 0.31996,-0.29993c0,-0.1 0.06,-0.16003 0.15999,-0.14001c0.25998,0.06001 1.33992,-0.29996 1.79985,-0.59995c0.25998,-0.15997 0.67999,-0.31995 0.95996,-0.35995c0.25998,-0.02 0.81993,-0.21999 1.23993,-0.43996c0.39996,-0.19997 0.85991,-0.33999 0.99989,-0.3c0.12,0.05999 0.63997,-0.12 1.09993,-0.39999c0.99994,-0.53994 2.23981,-0.69987 2.05986,-0.21992c-0.06004,0.15993 -0.02,0.27995 0.09998,0.27995c0.12001,0 0.15997,0.08002 0.09999,0.16003c-0.04001,0.07997 0.08,0.77991 0.27998,1.51987c0.21999,0.75993 0.33997,1.43989 0.29999,1.53986c-0.06003,0.07999 -0.02002,0.21999 0.09999,0.27999c0.12001,0.07996 0.15999,0.31995 0.07999,0.53996c-0.07999,0.3 -0.05997,0.36 0.12004,0.25998c0.17999,-0.09999 0.19998,-0.03999 0.11995,0.23999c-0.07999,0.21999 0.02,0.93993 0.17999,1.6199c0.17998,0.65994 0.34001,1.51987 0.37996,1.89983c0.04001,0.37997 0.12001,0.77995 0.20001,0.91994c0.07999,0.11996 0.09999,0.51995 0.01999,0.87994c-0.08,0.39993 -0.06004,0.53992 0.06,0.37993c0.16,-0.23996 0.17999,-0.11996 0.22,1.7599c0.01996,0.25996 0.10002,0.97989 0.22,1.59984c0.31998,1.77988 0.45996,4.97965 0.43996,10.09926c0,5.57958 -0.09998,7.5594 -0.51996,10.61922c-0.15999,1.23988 -0.23996,2.43977 -0.17995,2.67978c0.09998,0.34 0.05994,0.42001 -0.14001,0.3c-0.19997,-0.12 -0.21997,-0.04002 -0.11998,0.35995c0.06001,0.27998 0.04001,0.55997 -0.07999,0.63997c-0.09999,0.06001 -0.13998,0.23994 -0.08,0.39996c0.06,0.16 -0.01999,0.91996 -0.19998,1.69987c-0.17999,0.77995 -0.28,1.49992 -0.22,1.6199c0.08003,0.09998 0.02,0.17999 -0.11995,0.17999c-0.11998,0 -0.17999,0.16 -0.11998,0.39996c0.05997,0.21994 0.03995,0.35995 -0.06001,0.29996c-0.08002,-0.03999 -0.14,0.23997 -0.14,0.65997c0,0.39996 -0.15999,1.17992 -0.34,1.71986c-0.19995,0.55994 -0.35994,1.2599 -0.37994,1.55989c-0.01999,0.29996 -0.10001,0.55994 -0.17998,0.55994c-0.08,0 -0.10002,0.14001 -0.03999,0.3c0.07997,0.15999 0.01997,0.29996 -0.12001,0.29996c-0.11998,0 -0.17998,0.08002 -0.11998,0.17999c0.05998,0.10001 -0.01999,0.55997 -0.17998,1.03992c-0.17999,0.45998 -0.43997,1.4399 -0.59996,2.15984c-0.17999,0.69991 -0.37999,1.37991 -0.47998,1.49989c-0.22,0.27997 -0.49997,1.35988 -0.43996,1.69986c0.01999,0.15999 -0.03999,0.19998 -0.19998,0.09999c-0.13998,-0.08003 -0.20001,-0.05998 -0.12001,0.08002c0.08,0.09996 -0.04001,0.59996 -0.23999,1.09985c-0.21999,0.50003 -0.33995,0.95996 -0.27997,1.01996c0.08,0.06001 0.01999,0.12004 -0.10001,0.12004c-0.13998,0 -0.21997,0.05997 -0.19998,0.15996c0.06,0.17996 -0.63995,2.0598 -0.89993,2.39981c-0.09999,0.12001 -0.13997,0.23999 -0.05998,0.23999c0.05998,0 -0.13997,0.53996 -0.47997,1.19992c-0.33998,0.65994 -0.59999,1.2399 -0.57997,1.31987c0.02002,0.06003 -0.15997,0.47995 -0.37996,0.93994c-0.23997,0.45996 -0.77994,1.55989 -1.19995,2.43982c-1.19986,2.43979 -2.69977,5.27959 -3.39972,6.39949c-0.35997,0.56 -0.73993,1.21991 -0.87993,1.49991c-0.13998,0.27997 -0.35997,0.61995 -0.49995,0.75992c-0.13997,0.14001 -0.39998,0.55998 -0.55997,0.91992c-0.17998,0.36 -0.51994,0.87996 -0.75992,1.13994c-0.24002,0.25999 -0.41998,0.49997 -0.37997,0.51997c0.08,0.09999 -1.3999,2.2598 -1.55989,2.2598c-0.07999,0 -0.21999,0.21997 -0.27997,0.49995c-0.08,0.27997 -0.22,0.49994 -0.31999,0.49994c-0.09998,0 -0.57996,0.59996 -1.07991,1.35991c-0.49994,0.73996 -1.21991,1.69989 -1.61986,2.13983c-0.37999,0.43999 -0.75996,0.89992 -0.83995,0.99997c-0.19998,0.25998 -2.51979,2.95975 -2.65979,3.09975c-0.06001,0.06001 -0.47998,0.52 -0.91992,1.01991l-0.81996,0.91997l-0.81992,-0.83997l-0.00009,0.00002l-0.00005,-0.00002l-0.00003,0.00002l-0.00003,0z" id="svg_5"/>
   <path d="m21.15786,73.47716c-0.08001,-0.16003 -0.19999,-0.29999 -0.31999,-0.29999c-0.09999,0 -0.11998,0.09998 -0.06,0.19997c0.14,0.21999 -0.15998,0.27998 -0.37996,0.06001c-0.13997,-0.15999 -0.55996,-0.25997 -1.3199,-0.35999c-0.27998,-0.01997 -0.49996,-0.06001 -0.49996,-0.07997c0,-0.04002 -0.13998,-0.08002 -0.29998,-0.12c-0.15998,-0.03999 -0.47996,-0.13998 -0.67994,-0.22c-0.29998,-0.11998 -0.33998,-0.07997 -0.21998,0.14003c0.09999,0.15993 0.02001,0.13996 -0.23998,-0.06001c-0.41998,-0.38 -0.75995,-0.47993 -0.57996,-0.18c0.11998,0.18 -1.25992,-0.05999 -1.87986,-0.31995c-0.33997,-0.14003 -0.53995,-0.20002 -1.09992,-0.33998c-0.21998,-0.03999 -0.57996,-0.16 -0.77994,-0.23997c-0.29996,-0.12003 -0.33998,-0.08 -0.21999,0.13998c0.15998,0.23995 0.12,0.23995 -0.15998,0.01997c-0.17998,-0.15995 -0.39996,-0.21999 -0.49995,-0.15995c-0.12001,0.05996 -0.29999,-0.02001 -0.43997,-0.18c-0.27999,-0.33997 -0.69995,-0.41998 -0.49998,-0.09998c0.06001,0.11996 0.04001,0.19998 -0.07999,0.19998c-0.09999,0 -0.23997,-0.08002 -0.29997,-0.18001c-0.05998,-0.09998 -0.29998,-0.13998 -0.51996,-0.07997c-0.23997,0.06 -0.39998,0 -0.39998,-0.14001c0,-0.13995 -0.13997,-0.19994 -0.29995,-0.11998c-0.37997,0.14 -0.37997,-0.13998 0,-0.85994c0.15998,-0.32 0.33995,-0.85995 0.39995,-1.21989c0.06,-0.35995 0.27999,-0.97993 0.49997,-1.39993c0.21999,-0.41996 0.41997,-0.99992 0.47997,-1.3199c0.25998,-1.47988 4.79963,-11.07914 6.69949,-14.17891c0.27996,-0.43997 0.45996,-0.81993 0.43996,-0.85992c-0.02,-0.04004 0.15999,-0.36 0.41996,-0.69998c0.25999,-0.35995 0.63996,-0.97993 0.85996,-1.37986c0.21996,-0.41999 0.45995,-0.75998 0.53995,-0.75998c0.09999,0 0.15998,-0.09999 0.15998,-0.19997c0,-0.23999 1.53988,-2.53981 1.81986,-2.71981c0.09999,-0.06 0.13999,-0.19997 0.07999,-0.29996c-0.07999,-0.09999 -0.06,-0.17999 0.04001,-0.17999c0.07999,0 0.37997,-0.33999 0.65995,-0.75993c0.59995,-0.89996 1.61988,-2.25984 1.91986,-2.53983c0.09998,-0.09999 0.59995,-0.73992 1.09992,-1.39987c0.47995,-0.65999 0.97991,-1.29993 1.07992,-1.41993c0.11999,-0.13997 0.55995,-0.67992 0.99993,-1.1999c0.43995,-0.53996 1.09992,-1.23993 1.45988,-1.5599c0.33997,-0.31997 0.63995,-0.63993 0.63995,-0.69993c0,-0.19997 3.9597,-4.1997 6.29953,-6.3595c2.5798,-2.37983 3.09975,-2.8198 5.09962,-4.33967c0.81994,-0.61997 1.55988,-1.25994 1.65986,-1.41993c0.08,-0.15998 0.23998,-0.29995 0.33999,-0.29995c0.11999,0 0.71995,-0.39998 1.37989,-0.89995c0.63994,-0.49996 1.2599,-0.89994 1.35989,-0.89994c0.1,0 0.39997,-0.21999 0.63995,-0.47995c0.25997,-0.27998 0.75993,-0.63993 1.09991,-0.81993c1.09992,-0.57994 1.4999,-0.81993 2.13985,-1.3199c0.33997,-0.25997 0.67993,-0.45998 0.75993,-0.43996c0.05998,0.02001 0.41995,-0.19997 0.77993,-0.45998c0.33999,-0.27995 0.63996,-0.41996 0.63996,-0.33995c0,0.07998 0.07999,0.06001 0.15998,-0.05999c0.15999,-0.24 1.91988,-1.27992 3.23975,-1.89988c0.49997,-0.23995 1.13993,-0.59995 1.43992,-0.81993c0.29996,-0.19997 0.71992,-0.41995 0.93992,-0.45997c0.19999,-0.03999 0.73993,-0.29996 1.1999,-0.57994c0.45996,-0.3 0.81995,-0.47996 0.81995,-0.43997c0,0.06 1.05991,-0.39998 2.35982,-0.99993c1.27989,-0.61997 2.49981,-1.1399 2.67981,-1.17989c0.19997,-0.04003 0.67992,-0.21999 1.07991,-0.41999c0.39998,-0.19997 0.83994,-0.33994 0.99993,-0.33994c0.15997,0 0.27995,-0.08002 0.27995,-0.18c0,-0.10003 0.08002,-0.14001 0.16,-0.08002c0.09998,0.06 0.63995,-0.12 1.21989,-0.37996c0.57996,-0.27998 1.09991,-0.47995 1.17992,-0.45998c0.19999,0.06 1.01994,-0.21998 1.99986,-0.65995c0.47995,-0.21998 0.93992,-0.33998 1.03992,-0.27994c0.1,0.05996 0.63995,-0.08001 1.23991,-0.32001c0.57996,-0.23996 1.27991,-0.41995 1.53987,-0.39994c0.28,0 0.67998,-0.10003 0.89994,-0.24c0.23999,-0.14001 0.95992,-0.27998 1.61989,-0.31997c0.65993,-0.03999 1.35989,-0.14001 1.53989,-0.23999c0.17997,-0.09999 0.81992,-0.19997 1.39986,-0.21999c0.57996,-0.01997 1.15993,-0.09998 1.25991,-0.17999c0.12,-0.07997 0.69995,-0.19997 1.29991,-0.27998c0.59996,-0.07997 1.2599,-0.17996 1.45988,-0.21998c0.2,-0.03999 0.39997,0.08001 0.45998,0.27998c0.06001,0.18 0.19997,0.49997 0.29998,0.69994c0.11998,0.20001 0.13998,0.87997 0.07998,1.53992c-0.07998,0.75994 -0.03999,1.21987 0.10001,1.29989c0.12,0.08001 0.21999,0.61996 0.19998,1.2599c-0.02,0.63994 0.04,1.75987 0.11999,2.5198c0.10001,0.99993 0.08,1.39991 -0.11999,1.51991c-0.17999,0.11996 -0.17999,0.23996 -0.02,0.57994c0.13998,0.24 0.17999,0.51998 0.11998,0.61996c-0.05998,0.09999 -0.02,0.21999 0.10001,0.29996c0.09998,0.06004 0.19998,0.32001 0.17998,0.55996c-0.01999,0.41999 -0.03999,0.39998 -0.19997,-0.06c-0.12,-0.35995 -0.15998,-0.17996 -0.12,0.67996c0.03999,1.15992 0.02,1.19991 -0.55994,1.35989c-0.31998,0.08001 -0.93993,0.18 -1.3399,0.20002c-0.41998,0.01997 -0.75994,0.11996 -0.75994,0.21998c0,0.09998 -0.13998,0.11999 -0.31998,0.06c-0.17999,-0.06 -0.89993,0.05999 -1.61988,0.27994c-0.71994,0.22003 -1.37991,0.33998 -1.47989,0.27998c-0.09998,-0.05996 -0.17999,-0.01997 -0.17999,0.08001c0,0.09999 -0.19997,0.19997 -0.43996,0.19997c-0.25996,0 -1.1399,0.24 -1.95985,0.53996c-0.81995,0.27998 -1.65987,0.51998 -1.85986,0.51998c-0.21996,0 -0.87994,0.21998 -1.47989,0.49997c-0.61995,0.25997 -1.15992,0.43997 -1.21992,0.39998c-0.03999,-0.06 -0.51997,0.12 -1.03992,0.37997c-0.51997,0.25997 -1.1799,0.51994 -1.4399,0.57994c-0.27995,0.04002 -0.87994,0.27998 -1.31989,0.49996c-0.45998,0.23999 -0.95995,0.41996 -1.13992,0.41996c-0.16,0 -0.3,0.10002 -0.3,0.24c0,0.11999 -0.05997,0.15998 -0.12,0.09998c-0.07999,-0.06 -0.51994,0.09999 -0.99992,0.38c-0.47993,0.27998 -0.87991,0.45994 -0.87991,0.39994c0,-0.21999 -7.37947,3.75973 -7.61945,4.11969c-0.05998,0.11999 -0.19997,0.2 -0.29997,0.2c-0.23998,0.01998 -1.83986,1.01991 -3.43974,2.15981c-0.45996,0.32001 -0.91994,0.59996 -0.99991,0.59996c-0.08002,0 -0.39998,0.24 -0.71995,0.53999c-0.31999,0.29996 -1.09991,0.89991 -1.71988,1.33987c-2.27982,1.61989 -3.19976,2.35982 -3.19976,2.53981c0,0.10003 -0.13997,0.24 -0.31997,0.31997c-0.69994,0.26001 -9.27929,8.77937 -9.27929,9.19933c0,0.05999 -0.19999,0.29999 -0.45998,0.53994c-0.23997,0.21999 -1.11991,1.31991 -1.93984,2.41986c-0.81993,1.09992 -1.59988,2.07984 -1.73987,2.15981c-0.13999,0.08002 -0.25996,0.24 -0.25996,0.32001c0,0.13997 -2.09985,3.39975 -3.29977,5.1596c-0.41998,0.59995 -1.11991,1.91985 -2.79977,5.1596c-0.77996,1.53989 -1.51991,2.97978 -1.63989,3.19976c-0.37996,0.69994 -1.07993,2.39981 -1.05991,2.5598c0,0.08 -0.22001,0.57999 -0.47997,1.11993c-0.27999,0.53996 -0.53997,1.21992 -0.59995,1.49986c-0.06,0.3 -0.31999,1.01994 -0.59998,1.63992c-0.27996,0.59995 -0.49994,1.21989 -0.45995,1.33987c0.02001,0.16003 -0.2,0.22002 -0.61995,0.18001c-0.41997,-0.01998 -0.61996,0.04001 -0.53997,0.15997c0.06,0.09998 0.01999,0.2 -0.09999,0.2c-0.12,0 -0.25999,-0.14001 -0.31999,-0.3l0.00002,0.00004l0,-0.00005l-0.00001,-0.00002l-0.00001,0l0.00002,0z" id="svg_6"/>
   <path d="m172.86641,62.178c0,-0.10002 0.01999,-0.23999 0.05998,-0.27998c0.02,-0.03999 -0.09999,-0.24 -0.27998,-0.44c-0.29997,-0.33994 -1.03992,-1.63982 -1.0799,-1.87982c0,-0.06001 -0.24001,-0.45998 -0.51997,-0.89996c-0.27997,-0.43996 -0.67995,-1.11993 -0.87994,-1.49989c-0.19998,-0.37997 -0.41995,-0.73993 -0.47995,-0.79993c-0.06001,-0.06001 -0.33998,-0.49996 -0.59996,-0.99993c-0.27997,-0.49996 -0.77994,-1.25991 -1.11989,-1.69986c-0.33998,-0.43997 -0.77995,-1.05993 -0.97992,-1.39988c-0.22,-0.32 -1.05995,-1.49989 -1.89987,-2.59981c-2.05983,-2.69981 -2.03984,-2.69981 -2.65979,-3.35975c-0.31999,-0.32001 -0.55998,-0.61996 -0.55998,-0.67997c0,-0.05999 -0.21997,-0.31997 -0.49991,-0.57994c-0.28,-0.26 -0.5,-0.51997 -0.5,-0.57997c0,-0.07998 -2.69977,-2.73979 -6.63951,-6.55952c-0.55994,-0.51994 -1.3199,-1.19989 -1.71985,-1.4999c-0.41997,-0.29995 -0.83995,-0.61992 -0.97992,-0.73993c-0.13997,-0.09998 -0.65997,-0.51994 -1.17993,-0.89994c-0.51996,-0.37997 -1.1599,-0.89991 -1.41991,-1.13991c-0.25999,-0.25997 -0.55995,-0.45994 -0.65994,-0.45994c-0.11998,0 -0.19998,-0.06 -0.19998,-0.16002c0,-0.07998 -0.49997,-0.43993 -1.09993,-0.79992c-0.59995,-0.35999 -1.09993,-0.71995 -1.09993,-0.79996c0,-0.07998 -0.41997,-0.35996 -0.93993,-0.63994c-0.53996,-0.25997 -1.27989,-0.71995 -1.65985,-0.99994c-0.37996,-0.29995 -0.83992,-0.59994 -0.99992,-0.65994c-0.15999,-0.07997 -0.73993,-0.39994 -1.2999,-0.73993c-0.53999,-0.32 -1.43991,-0.81993 -1.99986,-1.09991c-0.53995,-0.27998 -1.67989,-0.87994 -2.49982,-1.3199c-0.81995,-0.43996 -1.63986,-0.83995 -1.81984,-0.87993c-0.16,-0.04003 -0.81996,-0.33997 -1.43991,-0.67996c-0.61995,-0.33998 -1.13991,-0.55997 -1.13991,-0.51994c0,0.06 -0.43997,-0.12 -0.97992,-0.38c-0.53998,-0.27994 -1.01993,-0.43996 -1.09991,-0.37997c-0.06,0.08001 -0.12001,0.02001 -0.12001,-0.11996c0,-0.14001 -0.07999,-0.20002 -0.15999,-0.14001c-0.07999,0.03998 -0.53996,-0.08001 -1.01993,-0.29996c-0.47993,-0.20001 -0.93993,-0.33998 -1.01992,-0.28002c-0.1,0.06 -0.19999,0 -0.23997,-0.09998c-0.04002,-0.11996 -0.31998,-0.25998 -0.63995,-0.31997c-0.31998,-0.06001 -0.97993,-0.27998 -1.4799,-0.49997c-0.47996,-0.21999 -0.91991,-0.35996 -0.97993,-0.29996c-0.05997,0.06 -0.59995,-0.08001 -1.21989,-0.31997c-0.59996,-0.22002 -1.29992,-0.41999 -1.55989,-0.41999c-0.25996,0.02002 -0.47996,-0.05999 -0.47996,-0.15998c0,-0.09998 -0.13999,-0.12 -0.29998,-0.06c-0.16,0.08001 -0.29999,0.02001 -0.29999,-0.12c0,-0.12 -0.07999,-0.17995 -0.15998,-0.12c-0.1,0.06 -0.61995,-0.03999 -1.13991,-0.19997c-1.03992,-0.29996 -2.15984,-0.51994 -2.73981,-0.49997c-0.19997,0 -0.35998,-0.09999 -0.35998,-0.19997c0,-0.12 -0.07999,-0.15998 -0.17998,-0.08001c-0.10001,0.06 -1.01994,-0.07998 -2.03986,-0.29996c-1.07993,-0.24 -2.09985,-0.36 -2.43982,-0.27998c-0.43999,0.07997 -0.55995,0.06 -0.43999,-0.12c0.12,-0.18 -0.01997,-0.19997 -0.47993,-0.09999c-0.33997,0.08001 -0.61995,0.06 -0.61995,-0.04002c0,-0.07997 -0.69997,-0.17996 -1.55991,-0.19997c-0.83994,-0.03999 -1.71986,-0.09999 -1.93985,-0.13997c-0.21999,-0.06 -0.45995,-0.09999 -0.51997,-0.09999c-0.06001,-0.02001 -0.11998,-0.53999 -0.14,-1.17992c-0.09999,-2.83977 -0.17999,-4.21967 -0.31998,-5.33959c-0.09998,-0.85993 -0.07999,-1.11994 0.06001,-0.89995c0.15998,0.24 0.21999,0.14001 0.21999,-0.39994c-0.02,-0.37997 -0.13998,-0.87994 -0.29996,-1.07994c-0.17999,-0.23996 -0.27998,-0.77995 -0.25998,-1.39987l0.01999,-1.01995l0.14,0.89995c0.13998,0.81993 0.13998,0.77995 0.13998,-0.45998c0,-0.95991 -0.07999,-1.39987 -0.25999,-1.47989c-0.15997,-0.06 -0.25996,-0.33994 -0.25996,-0.63994c0.01999,-0.33998 0.05999,-0.39998 0.12,-0.15998c0.09999,0.33998 0.45996,0.47995 0.45996,0.15998c0,-0.09999 0.23997,-0.15998 0.53996,-0.15998c0.3,0 0.57996,-0.12 0.61996,-0.24c0.03999,-0.12 0.31995,-0.21998 0.59996,-0.19997c0.47995,0 0.49995,0.01997 0.13997,0.18c-0.27998,0.13997 0.06001,0.17996 1.09991,0.15998c0.81995,0 1.89986,0.03999 2.39983,0.11996c2.63979,0.35999 3.87971,0.47999 4.1597,0.37997c0.17999,-0.07997 0.25997,-0.03998 0.17999,0.08001c-0.07999,0.13997 0.25999,0.21998 0.93993,0.21998c0.59995,0 1.2599,0.09998 1.47989,0.21998c0.19998,0.09999 0.83994,0.21998 1.3999,0.25997c0.53995,0.04002 0.95992,0.12 0.91992,0.18c-0.10001,0.18 0.87994,0.41995 1.09991,0.3c0.09999,-0.06 0.91994,0.09998 1.81986,0.35995c0.89993,0.27998 1.77985,0.43997 1.91986,0.37997c0.15999,-0.06 0.27998,0 0.27998,0.14001c0,0.11996 0.09999,0.15998 0.2,0.09999c0.11998,-0.06 0.19997,-0.03999 0.19997,0.06c0,0.09999 0.23997,0.18 0.55997,0.19997c0.29996,0 0.85994,0.14001 1.23988,0.29999c0.37997,0.15999 1.01994,0.35996 1.39993,0.41995c0.39996,0.06 1.13992,0.29996 1.65988,0.51998c0.51993,0.23996 1.03992,0.35996 1.13991,0.29996c0.12001,-0.05999 0.19998,-0.01997 0.19998,0.09999c0,0.12 0.10002,0.15999 0.20001,0.09999c0.12,-0.07997 0.31995,-0.03999 0.45995,0.06c0.24001,0.17999 1.57988,0.67996 2.11984,0.75997c0.15999,0.03999 0.35997,0.17996 0.43997,0.31997c0.09998,0.13997 0.17998,0.19997 0.17998,0.09999c0,-0.08001 0.26001,-0.02001 0.57996,0.13997c0.29999,0.15999 0.77994,0.33998 1.03995,0.39998c0.25998,0.06 0.91992,0.31997 1.45985,0.59995c0.53998,0.27998 1.09993,0.51998 1.25992,0.51998c0.14,0 0.25998,0.07998 0.25998,0.15998c0,0.09999 0.12001,0.18 0.25998,0.18c0.27998,0 4.31967,1.97985 7.35945,3.61972c2.07983,1.11989 2.6398,1.45987 5.31961,3.19977c0.71994,0.45994 1.35988,0.83995 1.39989,0.83995c0.09996,0 2.97975,2.0998 4.0397,2.95977c0.37996,0.29995 0.77994,0.57993 0.89992,0.61992c0.12001,0.04003 0.31999,0.21999 0.45996,0.39998c0.13998,0.18 0.25999,0.23999 0.25999,0.15998c0,-0.07997 0.19997,0.03999 0.45995,0.3c0.24002,0.25996 0.95996,0.85992 1.5999,1.33987c0.63994,0.47999 1.5399,1.23993 1.99983,1.6799c0.45998,0.45994 0.89992,0.81993 0.97998,0.83994c0.05997,0 0.61992,0.51995 1.21988,1.15989c0.59998,0.61996 1.17992,1.13994 1.27991,1.13994c0.09999,0 0.43997,0.33998 0.75996,0.75993c0.29996,0.41996 0.95992,1.05993 1.41988,1.41989c0.47998,0.36 0.87994,0.73996 0.87994,0.83995c0,0.07997 0.59995,0.77995 1.35988,1.53988c0.73993,0.75994 1.97986,2.15984 2.73978,3.13977c0.77995,0.95995 1.59988,1.95984 1.83987,2.21984c0.23996,0.25997 0.37996,0.47995 0.31998,0.47995c-0.06,0 0.12001,0.24 0.41998,0.51994c0.27997,0.3 1.03992,1.29993 1.65987,2.25984c0.63995,0.93993 1.35991,1.93987 1.5999,2.19987c0.25996,0.25997 0.45996,0.55993 0.45996,0.65991c0,0.14001 0.83994,1.51991 1.25989,2.05986c0.39998,0.49996 1.87988,2.81979 1.91989,2.99975c0.01997,0.12 0.23996,0.51998 0.45996,0.89995c0.23994,0.37996 0.67992,1.19994 0.95992,1.79988c0.29997,0.59995 0.77992,1.45988 1.05992,1.87982c0.57997,0.83996 0.67996,1.19991 0.29997,1.05994c-0.14,-0.03999 -0.77994,0.17999 -1.41989,0.49997c-0.63994,0.31996 -1.25993,0.51994 -1.37991,0.43996c-0.13997,-0.08002 -0.15996,-0.05999 -0.07999,0.07998c0.14,0.23999 -0.09999,0.31996 -0.61992,0.25999c-0.14001,-0.02 -0.65997,0.17996 -1.17993,0.45995c-0.49997,0.25996 -1.05992,0.44 -1.2399,0.38001c-0.22,-0.10004 -0.25996,-0.06 -0.13998,0.13997c0.09999,0.17999 0.08,0.21998 -0.07999,0.11999c-0.12001,-0.08 -0.53996,0.03999 -0.91995,0.25998c-0.37996,0.21998 -0.83995,0.35995 -0.99991,0.29995c-0.15996,-0.07997 -0.29997,-0.01997 -0.29997,0.12c0,0.12 -0.07999,0.18 -0.17998,0.12c-0.10002,-0.07998 -0.43997,0 -0.75995,0.15999c-1.11993,0.55997 -1.71986,0.81993 -1.93988,0.81993c-0.29997,0.02001 -0.87991,0.25996 -1.57988,0.61996c-0.67993,0.33998 -0.93991,0.35999 -0.93991,0.08001l0,0l-0.00006,0l-0.00002,0z" id="svg_7"/>
  </g>
 </g>
</svg>