<svg width="1280" height="853" xmlns="http://www.w3.org/2000/svg" xmlns:svg="http://www.w3.org/2000/svg">
 <g>
  <title>Layer 1</title>
  <rect id="svg_1" width="1280" height="853" y="0" x="0" fill="#3f3f3f"/>
  <path fill="#3f3f3f" d="m48,270l1187.99999,0l0,263.34l-1187.99999,0l0,-263.34z" id="svg_1"/>
  <path stroke="null" fill="#019c91" d="m97.8168,295.839c26.3142,-0.0198 52.6086,-0.0198 78.9228,-0.0198c0,11.0286 0.0198,22.0374 -0.0198,33.0462c-12.9888,4.3758 -25.9182,8.9496 -38.8476,13.5036c-13.4442,-4.356 -26.6904,-9.2466 -40.0752,-13.761c0.0396,-10.9296 0,-21.8394 0.0198,-32.769z" id="svg_2"/>
  <path stroke="null" fill="#626365" d="m1093.97459,327.42c6.4152,0 12.8304,0 19.2654,0c0.0594,48.8466 -0.1386,97.6734 0.099,146.52c-5.445,0 -10.8702,0 -16.2954,0c-0.3366,-5.7816 -0.6336,-11.5632 -0.7722,-17.3646c-6.8904,12.1572 -20.3148,20.6316 -34.5312,19.5228c-13.6422,1.089 -26.8092,-6.435 -34.2936,-17.5824c-6.1578,-8.3358 -7.9992,-18.7704 -10.296,-28.6308c-0.2376,18.6318 -12.3948,36.4914 -29.9772,42.9264c-8.9496,3.96 -18.9684,3.465 -28.512,2.871c-15.5232,-2.1582 -29.502,-13.0086 -35.2242,-27.6408c-7.7616,-19.2456 -5.742,-43.0254 7.326,-59.5386c18.4338,-22.4928 57.9942,-23.067 76.131,0.1188c6.6132,7.8804 9.1872,18.0972 11.0088,27.9972c2.5542,-13.1868 7.425,-26.7498 18.3348,-35.3628c16.335,-14.3154 45.1242,-13.3452 57.9546,5.247c-0.4554,-19.701 -0.0792,-39.3822 -0.2178,-59.0832z" id="svg_3"/>
  <path stroke="null" fill="#019c91" d="m611.36939,334.449c7.0488,-2.5542 15.4242,3.267 14.9094,10.89c0.7524,8.1378 -9.9396,14.85 -16.8102,10.2366c-8.9298,-3.8808 -7.5834,-18.81 1.9008,-21.1266z" id="svg_4"/>
  <path stroke="null" fill="#019c91" d="m126.012,346.6062c30.1158,-5.742 62.5284,11.5434 74.8044,39.6c9.4644,21.186 7.6626,47.4408 -5.7024,66.5874c-15.7212,24.057 -47.6388,36.234 -75.3192,28.215c-33.3828,-7.9794 -57.1032,-43.758 -50.6286,-77.616c4.257,-28.5318 28.3734,-52.4502 56.8458,-56.7864z" id="svg_5"/>
  <path stroke="null" fill="#019c91" d="m556.72139,349.5762c5.9004,-1.7028 11.8404,-3.267 17.82,-4.7124c0.0396,9.4644 0,18.9486 0.0198,28.413c8.6922,0 17.3844,0 26.0766,0c0,4.6728 0,9.3456 0,13.9986c-8.6922,0.0198 -17.3844,0.0198 -26.0766,0.0198c0.0792,19.701 -0.1584,39.402 0.099,59.0832c-0.1584,5.4252 2.9898,10.0188 6.3558,13.9392c5.8608,0.9108 11.8008,0.8118 17.6418,-0.0792c0.495,4.5738 0.99,9.1476 1.485,13.7214c-9.8604,2.4354 -21.0474,3.762 -30.5316,-0.5742c-9.1872,-4.5738 -13.167,-15.4044 -12.8898,-25.1658c-0.0198,-20.3148 0.0198,-40.6098 0,-60.9246c-5.2866,0 -10.5732,-0.0198 -15.84,-0.0198c0,-4.653 0,-9.3258 0,-13.9788c5.2668,0 10.5534,-0.0198 15.84,-0.0198c0,-7.9002 0,-15.8004 0,-23.7006z" id="svg_6"/>
  <path stroke="null" fill="#019c91" d="m238.08,391.4532c6.5736,-10.4742 17.4834,-18.3744 30.0168,-19.5228c15.4242,-2.5938 31.7592,4.4748 40.293,17.622c12.078,18.81 12.4344,44.0748 2.1384,63.756c-9.7812,19.998 -35.739,28.2348 -55.836,19.7604c-6.0588,-2.4354 -10.494,-7.4052 -14.6916,-12.1968c0.3168,18.1962 0.0792,36.3924 0.1386,54.5886c-5.9598,0 -11.9196,0 -17.8992,0c-0.594,-47.2824 1.4058,-94.6242 -1.4256,-141.8472c5.6826,-0.0198 11.385,-0.0198 17.0676,-0.0198c0.1584,5.94 0.2772,11.8998 0.198,17.8596z" id="svg_7"/>
  <path stroke="null" fill="#019c91" d="m345.8118,375.5142c15.6618,-6.93 36.3726,-5.6034 48.5694,7.3854c11.1276,11.7216 14.058,28.9476 12.1374,44.5302c-23.7798,-0.0396 -47.5794,-0.0594 -71.3592,0c0.8514,10.7316 4.1184,22.572 13.7214,28.71c14.751,9.4644 33.7392,6.633 49.3218,0.891c1.0692,4.3956 2.1582,8.7912 3.1878,13.2066c-14.0382,5.9598 -29.5614,6.6528 -44.5698,5.247c-15.543,-2.3166 -29.8386,-12.87 -35.1846,-27.8784c-4.6134,-11.0484 -3.7422,-23.3046 -2.5542,-34.9272c2.376,-15.6024 11.9394,-30.7098 26.73,-37.1646z" id="svg_8"/>
  <path stroke="null" fill="#019c91" d="m430.1598,394.1064c5.346,-13.5432 18.513,-25.1262 33.9174,-22.473c0,5.742 0,11.484 0,17.2458c-7.1478,-0.3564 -15.048,-0.0198 -20.5524,5.1876c-8.9694,7.2072 -10.8702,19.3842 -11.4048,30.195c-0.0594,16.5528 0.0396,33.1254 0,49.6782c-5.94,0 -11.8998,0 -17.8398,0c-0.3366,-33.4422 0.693,-66.924 -0.5544,-100.3662c5.4648,0.0198 10.9098,0.0198 16.3746,0.0792c0.0396,6.8112 0,13.6422 0.0594,20.4534z" id="svg_9"/>
  <path stroke="null" fill="#019c91" d="m466.4136,380.3256c11.6028,-6.8904 25.4232,-9.8406 38.8278,-8.6328c9.3258,0.8316 18.9882,4.4352 24.7698,12.1374c5.9994,7.5438 7.821,17.4042 8.0586,26.829c0.3762,21.087 -0.7722,42.2532 1.3266,63.2808c-5.3262,0 -10.6326,0 -15.939,0c-0.7722,-4.0392 -1.584,-8.0586 -2.3958,-12.078c-11.2068,14.5332 -33.3828,18.8892 -49.1832,9.7812c-12.5136,-7.3656 -15.4242,-24.4134 -10.3356,-37.1646c3.5244,-8.5338 11.2662,-14.5926 19.602,-18.0378c12.2562,-4.9896 25.6212,-6.4746 38.7684,-6.0786c-0.2376,-7.7022 -1.1286,-16.9884 -8.415,-21.4038c-12.8502,-8.0586 -29.007,-2.8908 -41.3028,3.7026c-1.1286,-4.158 -2.4552,-8.2368 -3.7818,-12.3354z" id="svg_10"/>
  <path stroke="null" fill="#019c91" d="m672.61079,372.267c18.3348,-3.4056 39.1842,3.3462 49.4604,19.5426c12.9888,20.6316 11.88,50.1534 -4.2372,68.805c-13.1472,14.9688 -35.343,18.6912 -53.856,13.3254c-16.2162,-5.049 -27.9774,-19.8594 -30.9672,-36.333c-2.3562,-14.5926 -1.3266,-30.492 6.6132,-43.3422c6.8112,-11.9394 19.5426,-19.8792 32.9868,-21.9978z" id="svg_11"/>
  <path stroke="null" fill="#019c91" d="m754.89959,389.9484c10.8504,-18.711 38.4318,-24.6312 55.5588,-11.1276c9.405,7.4646 13.4838,19.9782 13.7214,31.6602c-0.0198,21.1464 -0.0198,42.2928 -0.0198,63.459c-6.0786,0 -12.1374,0 -18.1962,0c-0.0594,-19.1664 0.0396,-38.3526 -0.0396,-57.519c-0.1188,-10.0386 -2.5344,-21.879 -12.177,-27.0468c-15.1668,-8.5536 -35.6796,3.762 -36.8082,20.7306c-0.396,21.2652 -0.0198,42.5502 -0.1386,63.8352c-6.237,0 -12.474,0 -18.6912,0c-0.3168,-33.4422 0.8316,-66.924 -0.9504,-100.3464c5.5638,0 11.1474,0 16.731,0.0198c0.495,5.4252 0.7722,10.89 1.0098,16.335z" id="svg_12"/>
  <path stroke="null" fill="#626365" d="m1147.85039,375.6726c15.2658,-6.8904 35.1054,-5.841 47.7774,5.8608c11.8998,11.8008 15.3054,29.6802 13.563,45.837c-23.8788,0.0792 -47.7576,-0.0396 -71.6364,0.0792c0.9108,10.5732 3.96,22.2552 13.4046,28.4328c14.652,9.8604 33.8382,6.8112 49.5396,1.2672c1.1484,4.3164 2.2572,8.6526 3.3858,12.969c-11.1078,4.7322 -23.2056,6.4152 -35.2242,5.8806c-14.4738,0.6336 -29.4228,-5.5044 -38.2734,-17.1864c-9.3654,-11.8602 -11.385,-27.8982 -9.5634,-42.5304c1.8216,-16.731 11.3652,-33.3828 27.027,-40.6098z" id="svg_13"/>
  <path stroke="null" fill="#019c91" d="m605.94419,373.5936c6.0984,0 12.1968,0 18.2952,0c0.0198,33.4422 0,66.9042 0,100.3464c-6.0984,0 -12.2166,0 -18.2952,0c0,-33.4422 -0.0198,-66.9042 0,-100.3464z" id="svg_14"/>
  <path stroke="null" fill="#626365" d="m856.55279,385.6914c17.0082,-15.8004 43.5402,-17.5626 64.35,-8.9298c-1.485,4.6926 -2.8512,9.4248 -4.0986,14.1768c-10.593,-5.0688 -23.1264,-5.643 -34.353,-2.6928c-29.2446,9.7614 -30.9276,57.7962 -3.0492,70.2504c12.078,5.9202 25.8786,3.2274 37.7982,-1.6632c1.089,4.653 2.1384,9.3258 3.2076,13.9986c-12.771,5.346 -26.8686,6.1578 -40.4514,4.5342c-16.5726,-2.6334 -31.0464,-14.9688 -36.0954,-30.9672c-6.2568,-19.8792 -2.8512,-43.9164 12.6918,-58.707z" id="svg_15"/>
  <path stroke="null" fill="#3f3f3f" d="m125.022,401.769c4.3758,-8.1972 8.3358,-16.6122 12.6324,-24.849c4.0392,8.2764 8.1972,16.5132 12.177,24.8094c9.1674,1.0494 18.2556,2.8116 27.4824,3.5442c-6.5538,6.732 -13.4838,13.0878 -19.9386,19.899c1.8216,8.9694 3.2274,17.9982 4.851,27.0072c-8.0586,-4.1778 -15.9192,-8.712 -24.156,-12.474c-8.8902,2.9502 -16.6518,8.514 -25.146,12.4146c1.5246,-9.1476 3.366,-18.2556 4.6332,-27.4428c-6.8112,-6.336 -13.5234,-12.7512 -20.0376,-19.3842c9.2268,-0.7128 18.315,-2.4552 27.5022,-3.5244z" id="svg_16"/>
  <path stroke="null" fill="#3f3f3f" d="m346.1484,391.7898c9.8208,-10.1574 28.6704,-9.6624 37.2042,1.881c4.6728,5.8212 5.6628,13.464 6.0588,20.6712c-17.9982,0.0396 -35.9964,0.0792 -54.0144,-0.0198c1.7622,-8.1972 4.4154,-16.6716 10.7514,-22.5324z" id="svg_17"/>
  <path stroke="null" fill="#3f3f3f" d="m657.42419,398.4228c7.0884,-11.4642 22.4334,-16.4736 34.9074,-11.3058c13.761,6.633 19.8594,22.8492 19.1862,37.3824c0.495,13.3848 -5.3856,27.6606 -17.2062,34.6896c-12.5334,7.425 -29.9772,2.2374 -37.1052,-10.2762c-9.2268,-15.1074 -8.9496,-35.4222 0.2178,-50.49z" id="svg_18"/>
  <path stroke="null" fill="#3f3f3f" d="m963.09659,385.7112c7.4646,-2.2968 15.4638,0.7326 21.7998,4.7322c10.6524,8.3754 14.553,22.8294 13.8204,35.8974c-0.0198,13.167 -6.3954,27.0468 -18.3348,33.4224c-11.1078,5.8212 -25.8588,2.4354 -33.5412,-7.4448c-11.0286,-13.9986 -11.781,-34.2936 -4.3956,-50.1534c3.8808,-8.2962 11.6226,-14.6322 20.6514,-16.4538z" id="svg_19"/>
  <path stroke="null" fill="#3f3f3f" d="m1160.02739,384.8202c6.5538,-0.1584 13.5432,-0.6138 19.305,3.1284c9.4842,5.049 11.781,16.5924 12.87,26.334c-18.0576,0.1782 -36.1152,0.0594 -54.1728,0.0792c1.4652,-12.8898 9.2862,-25.3044 21.9978,-29.5416z" id="svg_20"/>
  <path stroke="null" fill="#3f3f3f" d="m259.9194,387.7308c8.2566,-1.98 18.1566,-2.2176 25.146,3.4254c10.5336,7.4844 13.86,21.1266 14.3946,33.363c-1.0494,12.8106 -4.7916,27.819 -17.226,34.1946c-12.8106,7.3656 -30.6504,2.4156 -38.0358,-10.3356c-5.8212,-8.9298 -3.7422,-19.9782 -4.0788,-30.0168c-0.4554,-12.9294 7.3062,-26.2548 19.8,-30.6306z" id="svg_21"/>
  <path stroke="null" fill="#3f3f3f" d="m1056.39419,387.81c6.237,-1.9998 13.068,-1.7226 19.4634,-0.5148c9.6228,3.5046 17.4636,12.771 17.8992,23.2254c0.4158,8.613 0.4158,17.2656 0.0198,25.8588c-0.6732,14.7312 -15.2262,26.5716 -29.6802,25.3638c-7.425,-1.0296 -14.9688,-4.1778 -19.503,-10.4148c-8.1774,-11.1276 -9.2862,-26.0172 -6.5934,-39.204c2.0592,-10.2762 8.514,-20.1564 18.3942,-24.3144z" id="svg_22"/>
  <path stroke="null" fill="#3f3f3f" d="m491.718,426.6576c9.1872,-3.1086 18.9684,-4.1382 28.611,-4.158c-0.4356,9.6228 2.0196,20.3742 -3.7422,28.908c-6.039,9.6426 -19.107,13.9392 -29.6802,9.8406c-6.5934,-2.772 -10.0584,-10.1772 -9.306,-17.1072c0.0594,-8.2764 6.633,-14.949 14.1174,-17.4834z" id="svg_23"/>
 </g>
</svg>