<svg width="1280" height="853" xmlns="http://www.w3.org/2000/svg" xmlns:svg="http://www.w3.org/2000/svg">
 <g>
  <title>Layer 1</title>
  <rect id="svg_1" width="1280" height="853" fill="#3f3f3f" y="0" x="0"/>
  <path fill="#3f3f3f" d="m50,304l1188,0l0,263.34003l-1188,0l0,-263.34003z" id="svg_1"/>
  <path stroke="null" fill="#019c91" d="m99.8168,329.83899c26.31419,-0.01981 52.6086,-0.01981 78.92279,-0.01981c0,11.02859 0.01981,22.03741 -0.01979,33.0462c-12.9888,4.37579 -25.9182,8.94962 -38.84761,13.5036c-13.44418,-4.35599 -26.69039,-9.24661 -40.0752,-13.76099c0.0396,-10.92963 0,-21.83942 0.01981,-32.76901z" id="svg_2"/>
  <path stroke="null" fill="#626365" d="m1095.97461,361.42001c6.41516,0 12.83044,0 19.26538,0c0.05945,48.84659 -0.13855,97.6734 0.099,146.52002c-5.44495,0 -10.87024,0 -16.29541,0c-0.33655,-5.78162 -0.63354,-11.5632 -0.77222,-17.36462c-6.89038,12.1572 -20.3147,20.63162 -34.53113,19.5228c-13.64221,1.08902 -26.8092,-6.435 -34.29358,-17.5824c-6.15784,-8.33578 -7.99927,-18.77039 -10.29602,-28.6308c-0.23761,18.63181 -12.39484,36.49142 -29.97723,42.92642c-8.94958,3.95999 -18.96838,3.465 -28.51196,2.871c-15.52325,-2.1582 -29.50201,-13.00861 -35.22424,-27.64081c-7.7616,-19.24561 -5.742,-43.02542 7.32599,-59.5386c18.43384,-22.4928 57.9942,-23.06699 76.13104,0.1188c6.61316,7.8804 9.18719,18.0972 11.00879,27.99719c2.55426,-13.1868 7.42499,-26.74979 18.33478,-35.36279c16.33496,-14.3154 45.12427,-13.34521 57.95459,5.24701c-0.45532,-19.70102 -0.07922,-39.3822 -0.21777,-59.08322z" id="svg_3"/>
  <path stroke="null" fill="#019c91" d="m613.36938,368.44901c7.04877,-2.5542 15.42419,3.267 14.90942,10.89001c0.75238,8.13779 -9.93964,14.84998 -16.81024,10.2366c-8.92981,-3.8808 -7.58337,-18.81 1.90082,-21.12662z" id="svg_4"/>
  <path stroke="null" fill="#019c91" d="m128.01199,380.6062c30.11581,-5.742 62.52841,11.5434 74.80441,39.60001c9.4644,21.186 7.6626,47.4408 -5.70241,66.5874c-15.72119,24.05698 -47.63879,36.23398 -75.3192,28.215c-33.3828,-7.9794 -57.1032,-43.758 -50.6286,-77.616c4.257,-28.5318 28.3734,-52.4502 56.84579,-56.78641z" id="svg_5"/>
  <path stroke="null" fill="#019c91" d="m558.72137,383.5762c5.90039,-1.70279 11.84039,-3.267 17.82001,-4.7124c0.03961,9.46439 0,18.94861 0.01978,28.41299c8.6922,0 17.3844,0 26.0766,0c0,4.67279 0,9.34561 0,13.9986c-8.6922,0.01981 -17.3844,0.01981 -26.0766,0.01981c0.07922,19.70099 -0.15839,39.40201 0.099,59.08319c-0.15839,5.4252 2.98981,10.0188 6.35583,13.93921c5.86078,0.9108 11.80078,0.8118 17.64178,-0.07919c0.495,4.57379 0.98999,9.14758 1.48499,13.72141c-9.86041,2.43539 -21.04736,3.76199 -30.53162,-0.57422c-9.18719,-4.57379 -13.16699,-15.40439 -12.88977,-25.1658c-0.01978,-20.31479 0.01978,-40.60977 0,-60.92459c-5.28662,0 -10.57318,-0.01981 -15.84003,-0.01981c0,-4.65298 0,-9.32581 0,-13.97879c5.26685,0 10.55341,-0.01981 15.84003,-0.01981c0,-7.90021 0,-15.80038 0,-23.70059z" id="svg_6"/>
  <path stroke="null" fill="#019c91" d="m240.08,425.45319c6.57359,-10.47418 17.48341,-18.37439 30.0168,-19.5228c15.42419,-2.59381 31.75919,4.47479 40.293,17.62201c12.078,18.80997 12.43439,44.07477 2.1384,63.75598c-9.78119,19.99802 -35.73898,28.23483 -55.836,19.76041c-6.05879,-2.43539 -10.494,-7.40518 -14.6916,-12.19681c0.3168,18.1962 0.07921,36.39243 0.13861,54.58859c-5.95981,0 -11.9196,0 -17.8992,0c-0.59401,-47.28238 1.40579,-94.62421 -1.4256,-141.84717c5.68259,-0.01981 11.38499,-0.01981 17.0676,-0.01981c0.1584,5.94 0.27719,11.89978 0.19801,17.85959l-0.00002,0z" id="svg_7"/>
  <path stroke="null" fill="#019c91" d="m347.8118,409.51419c15.6618,-6.92999 36.37259,-5.60339 48.5694,7.38541c11.12759,11.72159 14.05801,28.9476 12.13739,44.53018c-23.77979,-0.03958 -47.57938,-0.05939 -71.35919,0c0.85141,10.7316 4.11841,22.57202 13.72141,28.71002c14.75101,9.46439 33.7392,6.633 49.32181,0.89099c1.06918,4.3956 2.1582,8.7912 3.18784,13.2066c-14.03821,5.95981 -29.5614,6.6528 -44.56982,5.24698c-15.543,-2.31659 -29.83859,-12.87 -35.1846,-27.87839c-4.61337,-11.0484 -3.74219,-23.3046 -2.5542,-34.92719c2.37601,-15.60245 11.93942,-30.70981 26.73001,-37.16461l-0.00003,0z" id="svg_8"/>
  <path stroke="null" fill="#019c91" d="m432.15979,428.10641c5.34601,-13.54318 18.513,-25.12619 33.91739,-22.47299c0,5.742 0,11.48401 0,17.24579c-7.1478,-0.35638 -15.048,-0.01981 -20.5524,5.18762c-8.96939,7.20718 -10.87018,19.38419 -11.40479,30.19498c-0.05942,16.5528 0.03958,33.1254 0,49.67819c-5.94,0 -11.89981,0 -17.83981,0c-0.33658,-33.44217 0.69299,-66.92398 -0.55438,-100.36618c5.46478,0.01978 10.90979,0.01978 16.3746,0.07919c0.03958,6.81119 0,13.64218 0.05939,20.4534z" id="svg_9"/>
  <path stroke="null" fill="#019c91" d="m468.4136,414.32559c11.60281,-6.89041 25.42322,-9.84061 38.82782,-8.63281c9.32578,0.8316 18.98819,4.43521 24.76981,12.13742c5.99939,7.54379 7.82098,17.40417 8.05859,26.82898c0.37616,21.08701 -0.77222,42.2532 1.3266,63.28082c-5.32623,0 -10.63263,0 -15.93903,0c-0.77222,-4.03922 -1.58398,-8.05862 -2.39581,-12.078c-11.20679,14.5332 -33.38278,18.88922 -49.1832,9.78119c-12.51358,-7.3656 -15.42419,-24.41339 -10.33557,-37.16461c3.52438,-8.53378 11.2662,-14.59259 19.60199,-18.03778c12.2562,-4.98959 25.62119,-6.47461 38.7684,-6.07861c-0.23761,-7.70218 -1.1286,-16.9884 -8.41504,-21.40378c-12.85016,-8.05862 -29.00696,-2.89081 -41.30276,3.70258c-1.1286,-4.15799 -2.4552,-8.23679 -3.7818,-12.33539z" id="svg_10"/>
  <path stroke="null" fill="#019c91" d="m674.61078,406.267c18.33478,-3.40561 39.1842,3.34619 49.46039,19.5426c12.98883,20.63159 11.88,50.15341 -4.23718,68.80499c-13.14722,14.96881 -35.34302,18.69119 -53.85602,13.32541c-16.21619,-5.04901 -27.97736,-19.85941 -30.96716,-36.33301c-2.3562,-14.59259 -1.3266,-30.492 6.61316,-43.34219c6.81122,-11.93939 19.5426,-19.87921 32.98682,-21.9978z" id="svg_11"/>
  <path stroke="null" fill="#019c91" d="m756.8996,423.94839c10.8504,-18.711 38.43182,-24.6312 55.55878,-11.12759c9.40503,7.4646 13.48383,19.97821 13.72144,31.66019c-0.01984,21.14642 -0.01984,42.29285 -0.01984,63.45901c-6.07855,0 -12.13739,0 -18.19617,0c-0.05939,-19.16641 0.03961,-38.3526 -0.03961,-57.51901c-0.11877,-10.0386 -2.53442,-21.879 -12.177,-27.04681c-15.16681,-8.55359 -35.67957,3.76202 -36.80817,20.73062c-0.396,21.2652 -0.01984,42.5502 -0.13861,63.83524c-6.237,0 -12.474,0 -18.69122,0c-0.31677,-33.4422 0.8316,-66.92404 -0.95038,-100.34644c5.56378,0 11.1474,0 16.73096,0.01981c0.49506,5.4252 0.77222,10.88998 1.00983,16.33499z" id="svg_12"/>
  <path stroke="null" fill="#626365" d="m1149.85034,409.67261c15.26575,-6.89041 35.10535,-5.841 47.77734,5.86081c11.8999,11.80078 15.30542,29.68021 13.56311,45.83701c-23.87891,0.07919 -47.75769,-0.03961 -71.63647,0.07919c0.91077,10.57318 3.95996,22.25519 13.40466,28.4328c14.65198,9.86038 33.83813,6.81119 49.53955,1.26718c1.14844,4.31641 2.2572,8.65262 3.38586,12.96902c-11.10791,4.73218 -23.20569,6.41519 -35.22424,5.88058c-14.47388,0.63361 -29.42285,-5.50439 -38.27344,-17.1864c-9.36536,-11.8602 -11.38501,-27.89819 -9.56335,-42.5304c1.82153,-16.73099 11.36523,-33.38281 27.02698,-40.6098z" id="svg_13"/>
  <path stroke="null" fill="#019c91" d="m607.94421,407.5936c6.09839,0 12.19678,0 18.29517,0c0.01984,33.4422 0,66.90421 0,100.34641c-6.09839,0 -12.21655,0 -18.29517,0c0,-33.4422 -0.01978,-66.90421 0,-100.34641z" id="svg_14"/>
  <path stroke="null" fill="#626365" d="m858.5528,419.69141c17.00818,-15.80038 43.54022,-17.56259 64.34998,-8.92981c-1.48499,4.69263 -2.8512,9.4248 -4.09857,14.17682c-10.59302,-5.06882 -23.1264,-5.64301 -34.35303,-2.69281c-29.24457,9.76141 -30.92761,57.7962 -3.04919,70.2504c12.078,5.9202 25.8786,3.22739 37.79822,-1.66321c1.08899,4.65302 2.13837,9.32581 3.20758,13.9986c-12.771,5.34601 -26.86859,6.15781 -40.45142,4.53421c-16.57257,-2.63339 -31.04639,-14.96881 -36.0954,-30.96719c-6.25677,-19.87921 -2.8512,-43.91638 12.69183,-58.707z" id="svg_15"/>
  <path stroke="null" fill="#3f3f3f" d="m127.022,435.76901c4.37579,-8.1972 8.3358,-16.61221 12.6324,-24.849c4.0392,8.2764 8.19719,16.51318 12.177,24.80939c9.16739,1.04941 18.2556,2.81161 27.48239,3.54422c-6.5538,6.73199 -13.48381,13.0878 -19.93861,19.89899c1.82159,8.96939 3.2274,17.9982 4.85101,27.0072c-8.05859,-4.1778 -15.91919,-8.71201 -24.15599,-12.474c-8.89021,2.9502 -16.6518,8.51401 -25.146,12.41461c1.5246,-9.14761 3.366,-18.25562 4.6332,-27.44281c-6.8112,-6.336 -13.52341,-12.75119 -20.03761,-19.38422c9.2268,-0.7128 18.315,-2.4552 27.5022,-3.52438l0.00002,0z" id="svg_16"/>
  <path stroke="null" fill="#3f3f3f" d="m348.14841,425.78979c9.8208,-10.15741 28.67041,-9.66241 37.20419,1.88098c4.67282,5.82123 5.66281,13.46402 6.05881,20.6712c-17.9982,0.03961 -35.9964,0.07922 -54.0144,-0.01978c1.76221,-8.1972 4.41541,-16.6716 10.7514,-22.53241z" id="svg_17"/>
  <path stroke="null" fill="#3f3f3f" d="m659.42419,432.42279c7.08838,-11.4642 22.43341,-16.4736 34.90741,-11.30579c13.76099,6.633 19.85938,22.84918 19.18616,37.38239c0.49506,13.3848 -5.38556,27.66061 -17.20618,34.68961c-12.53339,7.42499 -29.97717,2.2374 -37.10522,-10.27621c-9.22675,-15.10739 -8.94958,-35.42218 0.21783,-50.48999z" id="svg_18"/>
  <path stroke="null" fill="#3f3f3f" d="m965.09662,419.71121c7.4646,-2.29681 15.46381,0.7326 21.7998,4.73221c10.6524,8.3754 14.55298,22.82938 13.82037,35.8974c-0.01978,13.16699 -6.39539,27.04678 -18.33478,33.42239c-11.10779,5.8212 -25.85883,2.43539 -33.5412,-7.44479c-11.02863,-13.9986 -11.78101,-34.29361 -4.39563,-50.15341c3.88086,-8.2962 11.62262,-14.6322 20.65143,-16.4538z" id="svg_19"/>
  <path stroke="null" fill="#3f3f3f" d="m1162.02734,418.82019c6.55383,-0.15839 13.54321,-0.6138 19.30505,3.12839c9.48413,5.04901 11.78088,16.59241 12.87,26.33401c-18.05762,0.17819 -36.11523,0.05939 -54.17285,0.07919c1.46521,-12.8898 9.28625,-25.30438 21.9978,-29.5416z" id="svg_20"/>
  <path stroke="null" fill="#3f3f3f" d="m261.9194,421.7308c8.25659,-1.98001 18.15659,-2.21759 25.146,3.42538c10.5336,7.48441 13.86002,21.12662 14.39459,33.36301c-1.04938,12.81061 -4.7916,27.819 -17.22598,34.19461c-12.81061,7.3656 -30.65039,2.41559 -38.03581,-10.3356c-5.8212,-8.92981 -3.7422,-19.97821 -4.0788,-30.01682c-0.4554,-12.92938 7.3062,-26.25479 19.8,-30.63058z" id="svg_21"/>
  <path stroke="null" fill="#3f3f3f" d="m1058.39417,421.81c6.23706,-1.99979 13.06799,-1.7226 19.46338,-0.5148c9.6228,3.50461 17.46362,12.771 17.89917,23.2254c0.41589,8.61301 0.41589,17.26559 0.0199,25.8588c-0.67322,14.7312 -15.2262,26.57159 -29.6803,25.3638c-7.42493,-1.0296 -14.96875,-4.1778 -19.50293,-10.41479c-8.17737,-11.12759 -9.28625,-26.01721 -6.59338,-39.20401c2.0592,-10.27618 8.51392,-20.1564 18.39417,-24.31439z" id="svg_22"/>
  <path stroke="null" fill="#3f3f3f" d="m493.71799,460.65759c9.18719,-3.10861 18.96841,-4.13821 28.61099,-4.15799c-0.43561,9.62277 2.01959,20.37418 -3.74219,28.90799c-6.039,9.64261 -19.10699,13.93921 -29.68021,9.84061c-6.59338,-2.772 -10.05841,-10.17722 -9.306,-17.10721c0.05942,-8.2764 6.633,-14.94901 14.1174,-17.4834z" id="svg_23"/>
 </g>

</svg>